<svg width="300" height="300" viewBox="0 0 300 300" fill="none" xmlns="http://www.w3.org/2000/svg">
<path d="M237.081 128.68L228.821 123.04C238.486 108.804 244.114 92.2164 245.107 75.0385C246.1 57.8606 242.421 40.7345 234.461 25.48L232.781 22.42L241.501 17.5L243.301 20.84C252.109 37.6977 256.183 56.6274 255.092 75.6161C254 94.6049 247.763 112.943 237.081 128.68ZM260.141 271.3V280H40.1406V271.3H89.9006L120.881 128C121.361 125.763 122.594 123.759 124.374 122.321C126.154 120.883 128.373 120.099 130.661 120.1H145.161V92.04C140.172 90.8811 135.719 88.0766 132.519 84.0784C129.319 80.0802 127.558 75.121 127.521 70C127.43 66.9053 127.961 63.8238 129.082 60.938C130.203 58.0522 131.893 55.4208 134.049 53.1996C136.206 50.9784 138.787 49.2127 141.638 48.0069C144.49 46.8011 147.555 46.1798 150.651 46.1798C153.747 46.1798 156.811 46.8011 159.663 48.0069C162.514 49.2127 165.095 50.9784 167.252 53.1996C169.409 55.4208 171.098 58.0522 172.219 60.938C173.341 63.8238 173.872 66.9053 173.781 70C173.737 75.2856 171.857 80.3917 168.465 84.4449C165.072 88.4981 160.376 91.2465 155.181 92.22V120.12H169.601C171.889 120.114 174.111 120.893 175.894 122.327C177.678 123.761 178.915 125.763 179.401 128L210.341 271.3H260.141ZM169.081 175.02H131.201L124.741 204.88H175.561L169.081 175.02ZM122.561 214.88L116.101 244.78H184.161L177.701 214.88H122.561ZM138.721 140.12L133.321 165.02H166.921L161.541 140.12H138.721ZM110.361 271.32H189.901L186.321 254.78H113.921L110.361 271.32ZM104.201 100.26C98.2249 91.1894 95.0667 80.5535 95.1236 69.6916C95.1806 58.8297 98.4502 48.2274 104.521 39.22L96.2406 33.62C89.0598 44.2628 85.1917 56.7939 85.1241 69.6324C85.0564 82.471 88.7924 95.0421 95.8606 105.76L104.201 100.26ZM215.141 70C215.153 57.3047 211.44 44.8849 204.461 34.28L196.101 39.78C202.062 48.8503 205.208 59.4807 205.144 70.3344C205.08 81.1882 201.809 91.7807 195.741 100.78L204.021 106.34C211.283 95.6135 215.157 82.9536 215.141 70ZM70.6806 122.36C60.9965 107.64 55.5835 90.524 55.0433 72.9127C54.5031 55.3015 58.8568 37.8854 67.6206 22.6L58.9606 17.6C49.2699 34.4972 44.457 53.7515 45.0573 73.2211C45.6575 92.6906 51.6474 111.612 62.3606 127.88L70.6806 122.36Z" fill="#FFD700"/>
</svg>
