<svg width="300" height="300" viewBox="0 0 300 300" fill="none" xmlns="http://www.w3.org/2000/svg">
<path d="M49.1125 61.6125L66.7875 79.2875C57.4879 88.5635 50.1131 99.5858 45.087 111.721C40.0608 123.856 37.4825 136.865 37.5 150C37.5 177.625 48.6875 202.625 66.7875 220.713L49.125 238.375C26.4875 215.763 12.5 184.513 12.5 150C12.5 115.488 26.5 84.2375 49.1125 61.6125ZM250.887 61.6125C273.512 84.2375 287.5 115.488 287.5 150C287.5 184.513 273.5 215.775 250.887 238.388L233.212 220.713C251.312 202.613 262.5 177.613 262.5 150C262.5 122.388 251.312 97.4 233.225 79.3L250.875 61.625L250.887 61.6125ZM162.5 62.5001V137.5H200L137.5 237.5V162.5H100L162.5 62.5001ZM84.4625 96.9626L102.15 114.65C97.4979 119.285 93.8085 124.795 91.2942 130.862C88.78 136.929 87.4905 143.433 87.5 150C87.5 163.813 93.1 176.313 102.15 185.35L84.4625 203.038C77.4901 196.078 71.9607 187.811 68.1918 178.709C64.4229 169.608 62.4886 159.851 62.5 150C62.5 129.288 70.9 110.538 84.4625 96.9626ZM215.55 96.975C222.519 103.933 228.046 112.199 231.813 121.299C235.579 130.398 237.512 140.152 237.5 150C237.511 159.851 235.577 169.608 231.808 178.709C228.039 187.811 222.51 196.078 215.537 203.038L197.85 185.35C202.502 180.715 206.192 175.205 208.706 169.138C211.22 163.071 212.51 156.567 212.5 150C212.51 143.437 211.223 136.937 208.713 130.872C206.203 124.808 202.52 119.299 197.875 114.663L215.55 96.975Z" fill="#FFD700"/>
</svg>
