<svg width="20" height="20" viewBox="0 0 20 20" fill="none" xmlns="http://www.w3.org/2000/svg">
<path fill-rule="evenodd" clip-rule="evenodd" d="M14.6193 3.91992C14.368 3.31328 13.9996 2.76209 13.5352 2.29784L14.1247 1.70825C14.6664 2.24993 15.0961 2.89299 15.3892 3.60072C15.6824 4.30846 15.8333 5.067 15.8333 5.83304C15.8333 6.59909 15.6824 7.35763 15.3892 8.06536C15.0961 8.7731 14.6664 9.41616 14.1247 9.95784L13.5352 9.36825C14.2344 8.66904 14.7107 7.77818 14.9036 6.80831C15.0966 5.83844 14.9977 4.83314 14.6193 3.9195V3.91992Z" fill="hsl(0, 0%, 10%)"/>
<path fill-rule="evenodd" clip-rule="evenodd" d="M12.3091 4.87649C12.1835 4.57313 11.9995 4.29747 11.7674 4.06524L12.3566 3.47607C12.6661 3.78561 12.9116 4.15308 13.0792 4.55751C13.2467 4.96194 13.3329 5.3954 13.3329 5.83316C13.3329 6.27091 13.2467 6.70438 13.0792 7.10881C12.9116 7.51324 12.6661 7.88071 12.3566 8.19024L11.7674 7.60107C12.117 7.2514 12.3551 6.80591 12.4515 6.32094C12.5479 5.83597 12.4983 5.33329 12.3091 4.87649ZM8.23155 4.06524C7.99936 4.29739 7.81518 4.57301 7.68951 4.87635C7.56385 5.17969 7.49917 5.50482 7.49917 5.83316C7.49917 6.1615 7.56385 6.48662 7.68951 6.78996C7.81518 7.09331 7.99936 7.36892 8.23155 7.60107L7.64239 8.19024C7.33284 7.88071 7.08729 7.51324 6.91977 7.10881C6.75224 6.70438 6.66602 6.27091 6.66602 5.83316C6.66602 5.3954 6.75224 4.96194 6.91977 4.55751C7.08729 4.15308 7.33284 3.78561 7.64239 3.47607L8.23155 4.06524Z" fill="hsl(0, 0%, 10%)"/>
<path fill-rule="evenodd" clip-rule="evenodd" d="M6.46435 2.29784C5.52674 3.23551 5 4.50723 5 5.83325C5 7.15928 5.52674 8.431 6.46435 9.36867L5.87477 9.95825C5.33303 9.41657 4.9033 8.77348 4.61011 8.06571C4.31692 7.35794 4.16602 6.59935 4.16602 5.83325C4.16602 5.06716 4.31692 4.30857 4.61011 3.60079C4.9033 2.89302 5.33303 2.24993 5.87477 1.70825L6.46435 2.29784Z" fill="hsl(0, 0%, 10%)"/>
<path d="M10.8327 5.83333C10.8327 6.05435 10.7449 6.26631 10.5886 6.42259C10.4323 6.57887 10.2204 6.66667 9.99935 6.66667C9.77834 6.66667 9.56637 6.57887 9.41009 6.42259C9.25381 6.26631 9.16602 6.05435 9.16602 5.83333C9.16602 5.61232 9.25381 5.40036 9.41009 5.24408C9.56637 5.0878 9.77834 5 9.99935 5C10.2204 5 10.4323 5.0878 10.5886 5.24408C10.7449 5.40036 10.8327 5.61232 10.8327 5.83333Z" fill="hsl(0, 0%, 10%)"/>
hsl(0, 0%, 10%)
<path fill-rule="evenodd" clip-rule="evenodd" d="M4.16602 12.0833C4.16602 11.7517 4.29771 11.4338 4.53213 11.1994C4.76655 10.9649 5.08449 10.8333 5.41602 10.8333H14.5827C14.9142 10.8333 15.2321 10.9649 15.4666 11.1994C15.701 11.4338 15.8327 11.7517 15.8327 12.0833V17.0833C15.8327 17.4148 15.701 17.7327 15.4666 17.9671C15.2321 18.2016 14.9142 18.3333 14.5827 18.3333H5.41602C5.08449 18.3333 4.76655 18.2016 4.53213 17.9671C4.29771 17.7327 4.16602 17.4148 4.16602 17.0833V12.0833ZM8.45018 12.0999C8.53657 12.1253 8.61242 12.178 8.66635 12.2501C8.72028 12.3222 8.7494 12.4099 8.74935 12.4999V14.9999C8.85986 14.9999 8.96584 15.0438 9.04398 15.122C9.12212 15.2001 9.16602 15.3061 9.16602 15.4166C9.16602 15.5271 9.12212 15.6331 9.04398 15.7112C8.96584 15.7894 8.85986 15.8333 8.74935 15.8333V16.2499C8.74935 16.3604 8.70545 16.4664 8.62731 16.5445C8.54917 16.6227 8.44319 16.6666 8.33268 16.6666C8.22218 16.6666 8.11619 16.6227 8.03805 16.5445C7.95991 16.4664 7.91602 16.3604 7.91602 16.2499V15.8333H6.45768C6.38291 15.8332 6.30953 15.813 6.24524 15.7749C6.18094 15.7367 6.12811 15.6819 6.09227 15.6163C6.05643 15.5507 6.03891 15.4766 6.04155 15.4019C6.04419 15.3272 6.06689 15.2545 6.10727 15.1916L7.98227 12.2749C8.03087 12.1991 8.10273 12.1411 8.18709 12.1095C8.27144 12.078 8.36375 12.0746 8.45018 12.0999ZM7.91602 14.9999V13.9187L7.22102 14.9999H7.91602ZM13.6464 13.2391C13.6829 13.1983 13.7109 13.1507 13.729 13.099C13.747 13.0474 13.7547 12.9926 13.7516 12.938C13.7485 12.8834 13.7347 12.8299 13.7109 12.7806C13.6872 12.7313 13.6539 12.6872 13.6131 12.6508C13.2832 12.3557 12.8749 12.1625 12.4376 12.0943C12.0002 12.0262 11.5525 12.0861 11.1485 12.2668C10.7444 12.4475 10.4013 12.7413 10.1606 13.1127C9.91982 13.4842 9.79171 13.9173 9.79171 14.3599C9.79171 14.8025 9.91982 15.2357 10.1606 15.6071C10.4013 15.9785 10.7444 16.2723 11.1485 16.453C11.5525 16.6337 12.0002 16.6936 12.4376 16.6255C12.8749 16.5574 13.2832 16.3641 13.6131 16.0691C13.6568 16.03 13.6918 15.9822 13.7158 15.9287C13.7398 15.8752 13.7522 15.8173 13.7523 15.7587V14.3599C13.7523 14.2494 13.7084 14.1434 13.6302 14.0653C13.5521 13.9872 13.4461 13.9433 13.3356 13.9433H12.0848C11.9743 13.9433 11.8683 13.9872 11.7901 14.0653C11.712 14.1434 11.6681 14.2494 11.6681 14.3599C11.6681 14.4704 11.712 14.5764 11.7901 14.6545C11.8683 14.7327 11.9743 14.7766 12.0848 14.7766H12.9189V15.5578C12.7 15.7101 12.4435 15.7995 12.1774 15.8163C11.9113 15.8331 11.6456 15.7768 11.4092 15.6534C11.1728 15.5299 10.9748 15.3441 10.8365 15.1161C10.6982 14.8881 10.625 14.6266 10.6248 14.3599C10.6246 14.078 10.7062 13.8021 10.8595 13.5656C11.0127 13.329 11.2313 13.1419 11.4886 13.0268C11.746 12.9118 12.0311 12.8737 12.3096 12.9172C12.5881 12.9607 12.8481 13.0839 13.0581 13.272C13.1405 13.3457 13.2487 13.3836 13.3591 13.3774C13.4694 13.3712 13.5728 13.3215 13.6464 13.2391Z" fill="hsl(0, 0%, 10%)"/>
</svg>
