<svg width="20" height="20" viewBox="0 0 20 20" fill="none" xmlns="http://www.w3.org/2000/svg">
<path d="M17.4994 14.1666L16.9785 13.0208L15.8327 12.4999L16.9785 11.9791L17.4994 10.8333L18.0202 11.9791L19.166 12.4999L18.0202 13.0208L17.4994 14.1666ZM13.3327 13.3333L12.291 11.0416L9.99935 9.99992L12.291 8.95825L13.3327 6.66659L14.3744 8.95825L16.666 9.99992L14.3744 11.0416L13.3327 13.3333ZM17.4994 9.16659L16.9785 8.02075L15.8327 7.49992L16.9785 6.97909L17.4994 5.83325L18.0202 6.97909L19.166 7.49992L18.0202 8.02075L17.4994 9.16659ZM5.83268 19.1666C5.37435 19.1666 4.98185 19.0033 4.65518 18.6766C4.32852 18.3499 4.16546 17.9577 4.16602 17.4999V2.49992C4.16602 2.04159 4.32935 1.64909 4.65602 1.32242C4.98268 0.995753 5.37491 0.832698 5.83268 0.833253H14.166C14.6244 0.833253 15.0169 0.996587 15.3435 1.32325C15.6702 1.64992 15.8332 2.04214 15.8327 2.49992V5.83325H14.166V4.99992H5.83268V14.9999H14.166V14.1666H15.8327V17.4999C15.8327 17.9583 15.6694 18.3508 15.3427 18.6774C15.016 19.0041 14.6238 19.1671 14.166 19.1666H5.83268Z" fill="#404553"/>
</svg>
