<svg width="20" height="20" viewBox="0 0 20 20" fill="none" xmlns="http://www.w3.org/2000/svg">
<path d="M4.16732 16.6667V15H5.50065L7.14648 9.52083C7.25759 9.15972 7.46259 8.87139 7.76148 8.65583C8.06037 8.44028 8.39009 8.33278 8.75065 8.33333H11.2507C11.6118 8.33333 11.9418 8.44111 12.2406 8.65667C12.5395 8.87222 12.7443 9.16028 12.8548 9.52083L14.5006 15H15.834V16.6667H4.16732ZM9.16732 6.66667V2.5H10.834V6.66667H9.16732ZM14.1257 8.72917L12.9381 7.54167L15.8965 4.60417L17.0631 5.77083L14.1257 8.72917ZM15.0006 12.5V10.8333H19.1673V12.5H15.0006ZM5.87565 8.72917L2.93815 5.77083L4.10482 4.60417L7.06315 7.54167L5.87565 8.72917ZM0.833984 12.5V10.8333H5.00065V12.5H0.833984Z" fill="#404553"/>
</svg>
