<svg width="20" height="20" viewBox="0 0 20 20" fill="none" xmlns="http://www.w3.org/2000/svg">
<path d="M13.8252 6.17446C13.4736 5.82295 12.9968 5.62549 12.4996 5.62549C12.0024 5.62549 11.5256 5.82295 11.174 6.17446L10.8834 6.46446L11.7671 7.34821L12.0577 7.05821C12.1756 6.94436 12.3335 6.88137 12.4974 6.88279C12.6612 6.88422 12.818 6.94995 12.9339 7.06583C13.0497 7.18171 13.1155 7.33846 13.1169 7.50234C13.1183 7.66621 13.0553 7.82409 12.9415 7.94196L10.8834 10.0001L11.7671 10.8838L13.8252 8.82571C14.1767 8.4741 14.3742 7.99727 14.3742 7.50009C14.3742 7.0029 14.1767 6.52608 13.8252 6.17446ZM7.94148 12.942C7.8236 13.0558 7.66573 13.1188 7.50185 13.1174C7.33798 13.116 7.18122 13.0502 7.06534 12.9343C6.94946 12.8185 6.88373 12.6617 6.88231 12.4978C6.88088 12.334 6.94388 12.1761 7.05773 12.0582L9.11585 10.0001L8.2321 9.11634L6.17398 11.1745C5.9949 11.3474 5.85205 11.5543 5.75379 11.7831C5.65552 12.0118 5.6038 12.2579 5.60163 12.5068C5.59947 12.7558 5.64691 13.0027 5.74119 13.2331C5.83546 13.4636 5.97469 13.6729 6.15074 13.849C6.32679 14.025 6.53613 14.1642 6.76656 14.2585C6.99699 14.3528 7.24389 14.4002 7.49286 14.3981C7.74182 14.3959 7.98785 14.3442 8.21661 14.2459C8.44537 14.1476 8.65227 14.0048 8.82523 13.8257L9.11585 13.5357L8.2321 12.652L7.94148 12.942ZM8.82523 6.17509C8.47017 5.84182 7.99937 5.65976 7.51246 5.66744C7.02555 5.67511 6.56073 5.87192 6.21635 6.21622C5.87197 6.56052 5.67505 7.0253 5.66726 7.5122C5.65947 7.99911 5.84142 8.46995 6.1746 8.82509L6.4646 9.11571L7.34835 8.23196L7.05835 7.94134C6.9445 7.82346 6.88151 7.66558 6.88293 7.50171C6.88436 7.33784 6.95009 7.18108 7.06597 7.0652C7.18185 6.94932 7.3386 6.88359 7.50248 6.88217C7.66635 6.88074 7.82423 6.94374 7.9421 7.05759L9.9996 9.11634L10.8834 8.23259L8.82523 6.17509Z" fill="#404553"/>
<path d="M13.8266 11.1744L13.5366 10.8838L12.6528 11.7675L12.9428 12.0582C13.0567 12.176 13.1197 12.3339 13.1182 12.4978C13.1168 12.6617 13.0511 12.8184 12.9352 12.9343C12.8193 13.0502 12.6626 13.1159 12.4987 13.1173C12.3348 13.1188 12.1769 13.0558 12.0591 12.9419L10.0009 10.8838L9.11719 11.7675L11.1753 13.8257C11.5289 14.1672 12.0026 14.3562 12.4942 14.3519C12.9858 14.3477 13.4561 14.1505 13.8037 13.8028C14.1514 13.4552 14.3486 12.9849 14.3528 12.4933C14.3571 12.0017 14.1681 11.528 13.8266 11.1744Z" fill="#404553"/>
<path d="M10 19.3749C9.88932 19.375 9.78061 19.3457 9.685 19.2899L2.185 14.9149C2.09064 14.8599 2.01236 14.781 1.95797 14.6863C1.90357 14.5915 1.87497 14.4842 1.875 14.3749V5.62494C1.87497 5.51569 1.90357 5.40834 1.95797 5.31359C2.01236 5.21884 2.09064 5.14 2.185 5.08494L9.685 0.709941C9.7806 0.654153 9.88931 0.624756 10 0.624756C10.1107 0.624756 10.2194 0.654153 10.315 0.709941L17.815 5.08494L17.185 6.16494L10 1.97369L3.125 5.98369V14.0162L10 18.0268L16.875 14.0162V9.37494H18.125V14.3749C18.125 14.4842 18.0964 14.5915 18.042 14.6863C17.9876 14.781 17.9094 14.8599 17.815 14.9149L10.315 19.2899C10.2194 19.3457 10.1107 19.375 10 19.3749Z" fill="#404553"/>
</svg>
