<svg width="20" height="20" viewBox="0 0 20 20" fill="none" xmlns="http://www.w3.org/2000/svg">
<path d="M7.49935 10.8334V4.16675C7.49935 3.25008 8.24935 2.50008 9.16602 2.50008H16.666C17.5827 2.50008 18.3327 3.25008 18.3327 4.16675V9.16675H15.4743L14.4077 7.71675C14.3973 7.69949 14.3827 7.68521 14.3651 7.6753C14.3476 7.66538 14.3278 7.66017 14.3077 7.66017C14.2875 7.66017 14.2678 7.66538 14.2502 7.6753C14.2327 7.68521 14.2181 7.69949 14.2077 7.71675L12.5493 10.0001C12.4993 10.0501 12.3993 10.0584 12.3493 10.0001L11.1577 8.54175C11.1458 8.52799 11.1311 8.51695 11.1145 8.50939C11.098 8.50182 11.08 8.49791 11.0618 8.49791C11.0437 8.49791 11.0257 8.50182 11.0092 8.50939C10.9926 8.51695 10.9779 8.52799 10.966 8.54175L9.20768 10.7584C9.14102 10.8334 9.19935 10.9584 9.29935 10.9584H14.5827V12.5001H9.16602C8.24102 12.5001 7.49935 11.7584 7.49935 10.8334ZM4.99935 18.3334V17.5001H3.33268V18.3334H1.66602V1.66675H3.33268V2.50008H4.99935V1.66675H6.99102C6.28268 2.28341 5.83268 3.16675 5.83268 4.16675V10.8334C5.83268 12.6751 7.32435 14.1667 9.16602 14.1667H13.0827C12.2243 14.8584 11.666 15.9001 11.666 17.0834C11.666 17.5251 11.7577 17.9417 11.8993 18.3334H4.99935ZM3.33268 5.83341H4.99935V4.16675H3.33268V5.83341ZM3.33268 9.16675H4.99935V7.50008H3.33268V9.16675ZM3.33268 12.5001H4.99935V10.8334H3.33268V12.5001ZM4.99935 15.8334V14.1667H3.33268V15.8334H4.99935ZM19.166 10.8334V12.5001H17.4993V17.0834C17.4993 17.6359 17.2799 18.1659 16.8892 18.5566C16.4985 18.9473 15.9685 19.1667 15.416 19.1667C14.8635 19.1667 14.3336 18.9473 13.9429 18.5566C13.5522 18.1659 13.3327 17.6359 13.3327 17.0834C13.3329 16.7376 13.4191 16.3972 13.5837 16.0931C13.7483 15.7889 13.986 15.5305 14.2754 15.3412C14.5648 15.1518 14.8967 15.0375 15.2414 15.0085C15.586 14.9795 15.9324 15.0367 16.2493 15.1751V10.8334H19.166Z" fill="hsl(0, 0%, 10%)"/>
</svg>
