<svg width="20" height="20" viewBox="0 0 20 20" fill="none" xmlns="http://www.w3.org/2000/svg">
<path d="M15 15V17.5H5V15H3.75V17.5C3.75 17.8315 3.8817 18.1495 4.11612 18.3839C4.35054 18.6183 4.66848 18.75 5 18.75H15C15.3315 18.75 15.6495 18.6183 15.8839 18.3839C16.1183 18.1495 16.25 17.8315 16.25 17.5V15H15Z" fill="#404553"/>
<path d="M13.125 13.125L12.2413 12.2413L10.625 13.8575V8.75H9.375V13.8575L7.75875 12.2413L6.875 13.125L10 16.25L13.125 13.125ZM17.5 2.5V1.25H13.75V7.5H15V5H16.875V3.75H15V2.5H17.5ZM10.625 7.5H8.125V1.25H10.625C11.1221 1.2505 11.5988 1.4482 11.9503 1.79972C12.3018 2.15125 12.4995 2.62787 12.5 3.125V5.625C12.4995 6.12213 12.3018 6.59875 11.9503 6.95028C11.5988 7.3018 11.1221 7.4995 10.625 7.5ZM9.375 6.25H10.625C10.7907 6.24983 10.9496 6.18393 11.0668 6.06676C11.1839 5.94958 11.2498 5.79071 11.25 5.625V3.125C11.2498 2.95929 11.1839 2.80042 11.0668 2.68324C10.9496 2.56607 10.7907 2.50017 10.625 2.5H9.375V6.25ZM5.625 1.25H2.5V7.5H3.75V5.625H5.625C5.95637 5.6245 6.27402 5.49265 6.50834 5.25834C6.74265 5.02402 6.8745 4.70637 6.875 4.375V2.5C6.87467 2.16858 6.74287 1.85083 6.50852 1.61648C6.27417 1.38213 5.95642 1.25033 5.625 1.25ZM3.75 4.375V2.5H5.625L5.62563 4.375H3.75Z" fill="#404553"/>
</svg>
