<svg width="20" height="20" viewBox="0 0 20 20" fill="none" xmlns="http://www.w3.org/2000/svg">
<path d="M8.33398 1.66675L6.33398 4.50008C7.00065 4.33341 7.66732 4.16675 8.33398 4.16675C9.00065 4.16675 9.66732 4.33341 10.334 4.50008M15.834 4.16675C14.909 4.16675 14.1673 4.90841 14.1673 5.83341V11.4667C13.634 11.9417 13.334 12.6251 13.334 13.3334C13.334 14.7167 14.4507 15.8334 15.834 15.8334C17.2173 15.8334 18.334 14.7167 18.334 13.3334C18.334 12.6251 18.034 11.9417 17.5007 11.4751V5.83341C17.5007 4.90841 16.759 4.16675 15.834 4.16675ZM15.834 5.00008C16.2923 5.00008 16.6673 5.37508 16.6673 5.83341V6.66675H15.0007V5.83341C15.0007 5.37508 15.3757 5.00008 15.834 5.00008ZM4.58398 5.58341L1.08398 5.83341L2.58398 9.00008C2.66732 8.33341 2.91732 7.66675 3.25065 7.08341C3.66732 6.50008 4.08398 6.00008 4.58398 5.58341ZM8.33398 5.83341C6.00065 5.83341 4.16732 7.66675 4.16732 10.0001C4.16732 12.3334 6.00065 14.1667 8.33398 14.1667C10.6673 14.1667 12.5007 12.3334 12.5007 10.0001C12.5007 7.66675 10.6673 5.83341 8.33398 5.83341ZM2.66732 11.0001L1.16732 14.1667L4.58398 14.5001C4.16732 14.0834 3.66732 13.5001 3.33398 12.9167C2.91732 12.3334 2.75065 11.6667 2.66732 11.0001ZM6.33398 15.5001L8.33398 18.3334L10.334 15.5001C9.66732 15.6667 9.00065 15.8334 8.33398 15.8334C7.58398 15.8334 6.91732 15.6667 6.33398 15.5001Z" fill="hsl(0, 0%, 10%)"/>
</svg>
