<svg width="20" height="20" viewBox="0 0 20 20" fill="none" xmlns="http://www.w3.org/2000/svg">
<path d="M17.5 10.0001C17.5 10.1659 17.4342 10.3248 17.3169 10.442C17.1997 10.5592 17.0408 10.6251 16.875 10.6251H3.125C2.95924 10.6251 2.80027 10.5592 2.68306 10.442C2.56585 10.3248 2.5 10.1659 2.5 10.0001C2.5 9.83434 2.56585 9.67537 2.68306 9.55816C2.80027 9.44095 2.95924 9.3751 3.125 9.3751H16.875C17.0408 9.3751 17.1997 9.44095 17.3169 9.55816C17.4342 9.67537 17.5 9.83434 17.5 10.0001ZM7.94531 4.19541L9.375 2.75791V7.5001C9.375 7.66586 9.44085 7.82483 9.55806 7.94204C9.67527 8.05925 9.83424 8.1251 10 8.1251C10.1658 8.1251 10.3247 8.05925 10.4419 7.94204C10.5592 7.82483 10.625 7.66586 10.625 7.5001V2.75791L12.0547 4.19541C12.1742 4.31092 12.3338 4.3755 12.5 4.3755C12.6662 4.3755 12.8258 4.31092 12.9453 4.19541C13.0627 4.07691 13.1285 3.91688 13.1285 3.7501C13.1285 3.58332 13.0627 3.42328 12.9453 3.30479L10.4453 0.804785C10.3268 0.687422 10.1668 0.621582 10 0.621582C9.83322 0.621582 9.67318 0.687422 9.55469 0.804785L7.05469 3.30479C6.95502 3.42622 6.90409 3.58038 6.9118 3.73729C6.9195 3.8942 6.9853 4.04263 7.09638 4.15372C7.20747 4.2648 7.3559 4.33059 7.51281 4.3383C7.66971 4.34601 7.82388 4.29507 7.94531 4.19541ZM12.0547 15.8048L10.625 17.2423V12.5001C10.625 12.3343 10.5592 12.1754 10.4419 12.0582C10.3247 11.9409 10.1658 11.8751 10 11.8751C9.83424 11.8751 9.67527 11.9409 9.55806 12.0582C9.44085 12.1754 9.375 12.3343 9.375 12.5001V17.2423L7.94531 15.8048C7.82388 15.7051 7.66971 15.6542 7.51281 15.6619C7.3559 15.6696 7.20747 15.7354 7.09638 15.8465C6.9853 15.9576 6.9195 16.106 6.9118 16.2629C6.90409 16.4198 6.95502 16.574 7.05469 16.6954L9.55469 19.1954C9.67415 19.3109 9.83382 19.3755 10 19.3755C10.1662 19.3755 10.3258 19.3109 10.4453 19.1954L12.9453 16.6954C13.045 16.574 13.0959 16.4198 13.0882 16.2629C13.0805 16.106 13.0147 15.9576 12.9036 15.8465C12.7925 15.7354 12.6441 15.6696 12.4872 15.6619C12.3303 15.6542 12.1761 15.7051 12.0547 15.8048Z" fill="hsla(0, 0%, 100%, 0.85)"/>
</svg>
