<svg width="21" height="20" viewBox="0 0 21 20" fill="none" xmlns="http://www.w3.org/2000/svg">
<path d="M7.49935 18.3334C7.26324 18.3334 7.06519 18.2534 6.90519 18.0934C6.74519 17.9334 6.66546 17.7356 6.66602 17.5001V4.16675C6.66602 3.93064 6.74602 3.73258 6.90602 3.57258C7.06602 3.41258 7.2638 3.33286 7.49935 3.33342H9.16602V2.50008C9.16602 2.26397 9.24602 2.06592 9.40602 1.90592C9.56602 1.74592 9.7638 1.6662 9.99935 1.66675H11.666C11.9021 1.66675 12.1002 1.74675 12.2602 1.90675C12.4202 2.06675 12.4999 2.26453 12.4994 2.50008V3.33342H14.166C14.4021 3.33342 14.6002 3.41342 14.7602 3.57342C14.9202 3.73342 14.9999 3.9312 14.9994 4.16675V17.5001C14.9994 17.7362 14.9194 17.9342 14.7594 18.0942C14.5994 18.2542 14.4016 18.334 14.166 18.3334H7.49935ZM8.33269 6.66675H13.3327V5.00008H8.33269V6.66675Z" fill="hsl(0, 0%, 10%)"/>
</svg>
