<svg width="20" height="20" viewBox="0 0 20 20" fill="none" xmlns="http://www.w3.org/2000/svg">
<path d="M19.1667 5.83341V10.8334H17.5V5.83341M17.5 12.5001H19.1667V14.1667H17.5M10 1.66675C9.55797 1.66675 9.13405 1.84234 8.82149 2.1549C8.50893 2.46746 8.33333 2.89139 8.33333 3.33341C8.32749 3.41386 8.32749 3.49463 8.33333 3.57508C5.93333 4.28341 4.16667 6.51675 4.16667 9.16675V14.1667L2.5 15.8334V16.6667H17.5V15.8334L15.8333 14.1667V9.16675C15.8333 6.51675 14.0667 4.28341 11.6667 3.57508C11.6725 3.49463 11.6725 3.41386 11.6667 3.33341C11.6667 2.89139 11.4911 2.46746 11.1785 2.1549C10.866 1.84234 10.442 1.66675 10 1.66675ZM8.33333 17.5001C8.33333 17.9421 8.50893 18.366 8.82149 18.6786C9.13405 18.9912 9.55797 19.1667 10 19.1667C10.442 19.1667 10.866 18.9912 11.1785 18.6786C11.4911 18.366 11.6667 17.9421 11.6667 17.5001H8.33333Z" fill="hsl(0, 0%, 10%)"/>
</svg>
