<svg width="21" height="20" viewBox="0 0 21 20" fill="none" xmlns="http://www.w3.org/2000/svg">
<path d="M14.9993 15L13.8327 13.8333L17.6243 10L13.8327 6.16667L14.9993 5L19.9993 10L14.9993 15ZM6.66602 15L1.66602 10L6.66602 5L7.83268 6.16667L4.04102 10L7.83268 13.8333L6.66602 15ZM7.49935 10.8333C7.26324 10.8333 7.06518 10.7533 6.90518 10.5933C6.74518 10.4333 6.66546 10.2356 6.66602 10C6.66602 9.76389 6.74602 9.56583 6.90602 9.40583C7.06602 9.24583 7.26379 9.16611 7.49935 9.16667C7.73546 9.16667 7.93352 9.24667 8.09352 9.40667C8.25352 9.56667 8.33324 9.76444 8.33268 10C8.33268 10.2361 8.25268 10.4342 8.09268 10.5942C7.93268 10.7542 7.7349 10.8339 7.49935 10.8333ZM10.8327 10.8333C10.5966 10.8333 10.3985 10.7533 10.2385 10.5933C10.0785 10.4333 9.99879 10.2356 9.99935 10C9.99935 9.76389 10.0793 9.56583 10.2393 9.40583C10.3993 9.24583 10.5971 9.16611 10.8327 9.16667C11.0688 9.16667 11.2668 9.24667 11.4268 9.40667C11.5868 9.56667 11.6666 9.76444 11.666 10C11.666 10.2361 11.586 10.4342 11.426 10.5942C11.266 10.7542 11.0682 10.8339 10.8327 10.8333ZM14.166 10.8333C13.9299 10.8333 13.7318 10.7533 13.5718 10.5933C13.4118 10.4333 13.3321 10.2356 13.3327 10C13.3327 9.76389 13.4127 9.56583 13.5727 9.40583C13.7327 9.24583 13.9305 9.16611 14.166 9.16667C14.4021 9.16667 14.6002 9.24667 14.7602 9.40667C14.9202 9.56667 14.9999 9.76444 14.9993 10C14.9993 10.2361 14.9193 10.4342 14.7593 10.5942C14.5993 10.7542 14.4016 10.8339 14.166 10.8333Z" fill="hsla(0, 0%, 100%, 0.85)"/>
</svg>
