<svg width="20" height="20" viewBox="0 0 20 20" fill="none" xmlns="http://www.w3.org/2000/svg">
<path d="M15.8333 2.5H4.16667C3.72464 2.5 3.30072 2.67559 2.98816 2.98816C2.67559 3.30072 2.5 3.72464 2.5 4.16667V15.8333C2.5 16.2754 2.67559 16.6993 2.98816 17.0118C3.30072 17.3244 3.72464 17.5 4.16667 17.5H15.8333C16.75 17.5 17.5 16.75 17.5 15.8333V4.16667C17.5 3.25 16.75 2.5 15.8333 2.5ZM9.16667 12.5H7.91667V10.8333H6.25V12.5H5V7.5H6.25V9.58333H7.91667V7.5H9.16667V12.5ZM10.8333 7.5H14.1667C14.625 7.5 15 7.875 15 8.33333V11.6667C15 12.125 14.625 12.5 14.1667 12.5H10.8333V7.5ZM12.0833 11.25H13.75V8.75H12.0833V11.25Z" fill="hsla(0, 0%, 100%, 0.85)"/>
</svg>
