<svg width="21" height="20" viewBox="0 0 21 20" fill="none" xmlns="http://www.w3.org/2000/svg">
<path d="M13.748 0.833252H7.08138C6.52885 0.833252 5.99894 1.05275 5.60824 1.44345C5.21754 1.83415 4.99805 2.36405 4.99805 2.91659V17.0833C4.99805 17.6358 5.21754 18.1657 5.60824 18.5564C5.99894 18.9471 6.52885 19.1666 7.08138 19.1666H13.748C14.3006 19.1666 14.8305 18.9471 15.2212 18.5564C15.6119 18.1657 15.8314 17.6358 15.8314 17.0833V2.91659C15.8314 2.36405 15.6119 1.83415 15.2212 1.44345C14.8305 1.05275 14.3006 0.833252 13.748 0.833252ZM10.4147 18.3333C9.72305 18.3333 9.16471 17.7749 9.16471 17.0833C9.16471 16.3916 9.72305 15.8333 10.4147 15.8333C11.1064 15.8333 11.6647 16.3916 11.6647 17.0833C11.6647 17.7749 11.1064 18.3333 10.4147 18.3333ZM14.1647 14.9999H6.66471V3.33325H14.1647V14.9999Z" fill="hsla(0, 0%, 100%, 0.85)"/>
</svg>
