<svg width="21" height="20" viewBox="0 0 21 20" fill="none" xmlns="http://www.w3.org/2000/svg">
<path d="M18.6647 6.24992C19.3314 6.91658 19.3314 7.99992 18.6647 8.58325L16.3314 10.9166L9.83138 4.41659L12.1647 2.08325C12.8314 1.41659 13.9147 1.41659 14.498 2.08325L15.998 3.58325L18.498 1.08325L19.6647 2.24992L17.1647 4.74992L18.6647 6.24992ZM13.8314 11.0833L12.6647 9.91658L10.3314 12.2499L8.58138 10.4999L10.9147 8.16659L9.74805 6.99992L7.41471 9.33325L6.16471 8.16659L3.83138 10.4999C3.16471 11.1666 3.16471 12.2499 3.83138 12.8333L5.33138 14.3333L1.99805 17.6666L3.16471 18.8333L6.49805 15.4999L7.99805 16.9999C8.66471 17.6666 9.74805 17.6666 10.3314 16.9999L12.6647 14.6666L11.498 13.4999L13.8314 11.0833Z" fill="hsla(0, 0%, 100%, 0.85)"/>
</svg>
