<svg width="21" height="20" viewBox="0 0 21 20" fill="none" xmlns="http://www.w3.org/2000/svg">
<path d="M18.6792 3.86758C18.6044 3.78206 18.5126 3.71291 18.4098 3.66447C18.3069 3.61602 18.1952 3.58933 18.0816 3.58605C16.3162 3.53989 14.0823 1.6522 12.6054 0.911431C11.6931 0.455277 11.0908 0.154508 10.6385 0.0752769C10.5466 0.0618943 10.4533 0.0621535 10.3616 0.0760462C9.90925 0.155277 9.30694 0.456046 8.3954 0.9122C6.91848 1.6522 4.68463 3.54066 2.91924 3.58605C2.80553 3.5895 2.69373 3.61627 2.59079 3.66469C2.48784 3.71312 2.39594 3.78218 2.32078 3.86758C2.16499 4.04384 2.08461 4.27421 2.09694 4.50912C2.47617 12.2191 5.24155 16.9907 10.0939 19.7637C10.22 19.8353 10.36 19.8722 10.4992 19.8722C10.6385 19.8722 10.7785 19.8353 10.9054 19.7637C15.7577 16.9907 18.5223 12.2191 18.9023 4.50912C18.9154 4.27424 18.8352 4.04371 18.6792 3.86758ZM10.5 13.8899C9.26431 13.8899 8.07922 13.399 7.20544 12.5252C6.33167 11.6515 5.84078 10.4664 5.84078 9.23066C5.84078 7.99496 6.33167 6.80986 7.20544 5.93609C8.07922 5.06231 9.26431 4.57143 10.5 4.57143C11.7357 4.57143 12.9208 5.06231 13.7946 5.93609C14.6684 6.80986 15.1592 7.99496 15.1592 9.23066C15.1592 10.4664 14.6684 11.6515 13.7946 12.5252C12.9208 13.399 11.7357 13.8899 10.5 13.8899ZM12.4077 6.54528L7.81463 11.1384C7.41477 10.5825 7.19904 9.91539 7.19771 9.23066C7.19893 8.35521 7.54724 7.51596 8.16628 6.89693C8.78532 6.27789 9.62456 5.92957 10.5 5.92835C11.2123 5.92835 11.8669 6.15989 12.4077 6.54528ZM13.1846 7.32297C13.57 7.86297 13.8023 8.51912 13.8023 9.23066C13.8011 10.1061 13.4528 10.9454 12.8337 11.5644C12.2147 12.1834 11.3755 12.5317 10.5 12.533C9.81527 12.5317 9.14812 12.316 8.59232 11.916L13.1846 7.32297Z" fill="#404553"/>
</svg>
