<svg width="21" height="20" viewBox="0 0 21 20" fill="none" xmlns="http://www.w3.org/2000/svg">
<path d="M10.5007 18.3334C8.5701 17.8473 6.97621 16.7395 5.71898 15.0101C4.46176 13.2806 3.83343 11.3606 3.83398 9.25008V4.16675L10.5007 1.66675L17.1673 4.16675V9.25008C17.1673 11.3612 16.5387 13.2815 15.2815 15.0109C14.0243 16.7404 12.4307 17.8479 10.5007 18.3334ZM10.5007 16.5834C11.8479 16.1667 12.9729 15.3437 13.8757 14.1142C14.7784 12.8848 15.3062 11.5134 15.459 10.0001H10.5007V3.43758L5.50065 5.31258V9.62508C5.50065 9.7223 5.51454 9.8473 5.54232 10.0001H10.5007V16.5834Z" fill="#404553"/>
</svg>
