<svg width="21" height="20" viewBox="0 0 21 20" fill="none" xmlns="http://www.w3.org/2000/svg">
<path d="M10.8314 18.3334C10.373 18.3334 9.98055 18.1701 9.65388 17.8434C9.32721 17.5167 9.16416 17.1245 9.16471 16.6667C9.16471 16.3751 9.2411 16.1042 9.39388 15.8542C9.54666 15.6042 9.74805 15.4029 9.99805 15.2501V13.3334H7.49805C7.03971 13.3334 6.64721 13.1701 6.32055 12.8434C5.99388 12.5167 5.83082 12.1245 5.83138 11.6667V9.75008C5.58138 9.62508 5.37999 9.43758 5.22721 9.18758C5.07444 8.93758 4.99805 8.65286 4.99805 8.33341C4.99805 7.87508 5.16138 7.48258 5.48805 7.15591C5.81471 6.82925 6.20694 6.66619 6.66471 6.66675C7.12305 6.66675 7.51555 6.83008 7.84221 7.15675C8.16888 7.48341 8.33194 7.87564 8.33138 8.33341C8.33138 8.65286 8.25499 8.93064 8.10221 9.16675C7.94944 9.40286 7.74805 9.5973 7.49805 9.75008V11.6667H9.99805V5.00008H8.33138L10.8314 1.66675L13.3314 5.00008H11.6647V11.6667H14.1647V10.0001H13.3314V6.66675H16.6647V10.0001H15.8314V11.6667C15.8314 12.1251 15.668 12.5176 15.3414 12.8442C15.0147 13.1709 14.6225 13.334 14.1647 13.3334H11.6647V15.2501C11.9286 15.389 12.1336 15.5834 12.2797 15.8334C12.4258 16.0834 12.4986 16.3612 12.498 16.6667C12.498 17.1251 12.3347 17.5176 12.008 17.8442C11.6814 18.1709 11.2892 18.334 10.8314 18.3334Z" fill="hsla(0, 0%, 100%, 0.85)"/>
</svg>
