<svg width="20" height="20" viewBox="0 0 20 20" fill="none" xmlns="http://www.w3.org/2000/svg">
<path d="M5.00065 18.3333L18.334 4.95833V18.3333H5.00065ZM15.0007 16.6667H16.6673V9L15.0007 10.6667V16.6667ZM6.54232 8.16667L5.45898 7.08333C5.98676 6.55556 6.5701 6.16667 7.20898 5.91667C7.84787 5.66667 8.51454 5.54167 9.20898 5.54167C9.90343 5.54167 10.5701 5.66667 11.209 5.91667C11.8479 6.16667 12.4312 6.55556 12.959 7.08333L11.8757 8.16667C11.5007 7.79167 11.084 7.51056 10.6257 7.32333C10.1673 7.13611 9.6951 7.04222 9.20898 7.04167C8.72287 7.04167 8.25065 7.13556 7.79232 7.32333C7.33398 7.51111 6.91732 7.79222 6.54232 8.16667ZM4.41732 6L3.33398 4.95833C4.15343 4.13889 5.0701 3.52444 6.08398 3.115C7.09787 2.70556 8.13954 2.50056 9.20898 2.5C10.2784 2.5 11.327 2.705 12.3548 3.115C13.3826 3.525 14.3062 4.13944 15.1257 4.95833L14.0423 6C13.3757 5.33333 12.622 4.84028 11.7815 4.52083C10.9409 4.20139 10.0834 4.04167 9.20898 4.04167C8.33398 4.04167 7.48315 4.20139 6.65648 4.52083C5.82982 4.84028 5.08343 5.33333 4.41732 6ZM9.20898 10.8333L7.60482 9.22917C7.82704 9.00694 8.07704 8.83667 8.35482 8.71833C8.6326 8.6 8.91732 8.54111 9.20898 8.54167C9.50065 8.54167 9.78176 8.59722 10.0523 8.70833C10.3229 8.81944 10.5765 8.99306 10.8132 9.22917L9.20898 10.8333Z" fill="hsla(0, 0%, 100%, 0.85)"/>
</svg>
