<?xml version="1.0" encoding="UTF-8"?>
<svg id="Design" xmlns="http://www.w3.org/2000/svg" width="1201" height="1001" viewBox="0 0 1201 1001">
  <path d="m.5.5h1200v1000H.5V.5Zm0,909.1h1200M.5,818.7h1200M.5,727.8h1200M.5,636.9h1200M.5,546h1200M.5,455h1200M.5,364.1h1200M.5,273.2h1200M.5,182.3h1200M.5,91.4h1200M1143.4.5v1000M1086.2.5v1000M1029.1.5v1000M971.9.5v1000M914.8.5v1000M857.6.5v1000M800.5.5v1000M743.4.5v1000M686.2.5v1000M629.1.5v1000M571.9.5v1000M514.8.5v1000M457.6.5v1000M400.5.5v1000M343.4.5v1000M286.2.5v1000M229.1.5v1000M171.9.5v1000M114.8.5v1000M57.6.5v1000" fill="none" stroke="hsla(0, 0%, 100%, 0.05)" stroke-miterlimit="10"/>
</svg>