<?xml version="1.0" encoding="utf-8"?>
<!-- Generator: Adobe Illustrator 27.1.0, SVG Export Plug-In . SVG Version: 6.00 Build 0)  -->
<svg version="1.1" id="Design" xmlns="http://www.w3.org/2000/svg" xmlns:xlink="http://www.w3.org/1999/xlink" x="0px" y="0px"
	 viewBox="0 0 1920 1080" style="enable-background:new 0 0 1920 1080;" xml:space="preserve">
<style type="text/css">
	.st0{fill:none;stroke:hsla(0, 0%, 30%, .3);stroke-miterlimit:10;}
</style>
<g>
	<rect x="360" y="39.5" class="st0" width="1200" height="1000"/>
	<path class="st0" d="M360x1="360" y1="948.6" x2="1560" y2="948.6"/>
	<line class="st0" x1="360" y1="857.7" x2="1560" y2="857.7"/>
	<line class="st0" x1="360" y1="766.8" x2="1560" y2="766.8"/>
	<line class="st0" x1="360" y1="675.9" x2="1560" y2="675.9"/>
	<line class="st0" x1="360" y1="585" x2="1560" y2="585"/>
	<line class="st0" x1="360" y1="494" x2="1560" y2="494"/>
	<line class="st0" x1="360" y1="403.1" x2="1560" y2="403.1"/>
	<line class="st0" x1="360" y1="312.2" x2="1560" y2="312.2"/>
	<line class="st0" x1="360" y1="221.3" x2="1560" y2="221.3"/>
	<line class="st0" x1="360" y1="130.4" x2="1560" y2="130.4"/>
	<line class="st0" x1="1502.9" y1="39.5" x2="1502.9" y2="1039.5"/>
	<line class="st0" x1="1445.7" y1="39.5" x2="1445.7" y2="1039.5"/>
	<line class="st0" x1="1388.6" y1="39.5" x2="1388.6" y2="1039.5"/>
	<line class="st0" x1="1331.4" y1="39.5" x2="1331.4" y2="1039.5"/>
	<line class="st0" x1="1274.3" y1="39.5" x2="1274.3" y2="1039.5"/>
	<line class="st0" x1="1217.1" y1="39.5" x2="1217.1" y2="1039.5"/>
	<line class="st0" x1="1160" y1="39.5" x2="1160" y2="1039.5"/>
	<line class="st0" x1="1102.9" y1="39.5" x2="1102.9" y2="1039.5"/>
	<line class="st0" x1="1045.7" y1="39.5" x2="1045.7" y2="1039.5"/>
	<line class="st0" x1="988.6" y1="39.5" x2="988.6" y2="1039.5"/>
	<line class="st0" x1="931.4" y1="39.5" x2="931.4" y2="1039.5"/>
	<line class="st0" x1="874.3" y1="39.5" x2="874.3" y2="1039.5"/>
	<line class="st0" x1="817.1" y1="39.5" x2="817.1" y2="1039.5"/>
	<line class="st0" x1="760" y1="39.5" x2="760" y2="1039.5"/>
	<line class="st0" x1="702.9" y1="39.5" x2="702.9" y2="1039.5"/>
	<line class="st0" x1="645.7" y1="39.5" x2="645.7" y2="1039.5"/>
	<line class="st0" x1="588.6" y1="39.5" x2="588.6" y2="1039.5"/>
	<line class="st0" x1="531.4" y1="39.5" x2="531.4" y2="1039.5"/>
	<line class="st0" x1="474.3" y1="39.5" x2="474.3" y2="1039.5"/>
	<line class="st0" x1="417.1" y1="39.5" x2="417.1" y2="1039.5"/>
</g>
</svg>
