<svg xmlns="http://www.w3.org/2000/svg" id="Capa_1" data-name="Capa 1" viewBox="0 0 689.74 201.89">
  <defs>
    <style>
      .cls-1,
      .cls-2 {
        fill: hsl(0, 0%, 10%);
        stroke: hsl(0, 0%, 30%);
        stroke-miterlimit: 10;
        stroke-width: 2px
      }
    </style>
  </defs>
  <path d="M8.29 19.19h673.56v181.7H8.29z" class="cls-1" />
  <path d="M8.29 164.42h673.56v36.47H8.29z" class="cls-1" />
  <path d="M315.85 51.63h165.07v148.75H315.85zM48.1 19.19h204.42v181.15H48.1z" class="cls-1" />
  <path d="M420.67 56.93h55.39v139.03h-55.39z" class="cls-1" />
  <path d="M426.97 116.26h4.15v14.31h-4.15zM4.29 9.87h682.19V22.4H4.29zM258.99 47.75h50.91v147.07h-50.91z"
    class="cls-1" />
  <path
    d="M256.99 45.49h55.33v2.83h-55.33zM20.08 75.33h16.49v20.31H20.08zM490.87 100.64h8.19v8.19h-8.19zM504.6 29.36h15.18v20.06H504.6zM529.43 26.8h13.52v5.6h-13.52zM57.96 28.74h22.18v165.77H57.96z"
    class="cls-1" />
  <path d="M80.13 28.74h22.18v165.77H80.13zM102.31 28.74h22.18v165.77h-22.18z" class="cls-1" />
  <path d="M124.49 28.74h22.18v165.77h-22.18zM153.6 28.74h22.18v165.77H153.6z" class="cls-1" />
  <path d="M175.77 28.74h22.18v165.77h-22.18z" class="cls-1" />
  <path d="M197.95 28.74h22.18v165.77h-22.18zM220.13 28.74h22.18v165.77h-22.18zM322.12 64.05h10.56v60.35h-10.56z"
    class="cls-1" />
  <path
    d="M332.67 64.05h10.56v60.35h-10.56zM343.23 64.05h10.56v60.35h-10.56zM353.79 64.05h10.56v60.35h-10.56zM372.4 64.05h10.56v60.35H372.4z"
    class="cls-1" />
  <path d="M382.95 64.05h10.56v60.35h-10.56zM393.51 64.05h10.56v60.35h-10.56z" class="cls-1" />
  <path d="M404.06 64.05h10.56v60.35h-10.56zM55.91 39.11h59.69v7.28H55.91z" class="cls-1" />
  <circle cx="62.35" cy="42.75" r=".76" class="cls-2" />
  <circle cx="70.18" cy="42.75" r=".76" class="cls-2" />
  <circle cx="78.02" cy="42.75" r=".76" class="cls-2" />
  <circle cx="85.91" cy="42.75" r=".76" class="cls-2" />
  <circle cx="93.8" cy="42.75" r=".76" class="cls-2" />
  <circle cx="101.63" cy="42.75" r=".76" class="cls-2" />
  <circle cx="109.16" cy="42.85" r=".76" class="cls-2" />
  <path d="M55.3 175.37h59.69v7.28H55.3z" class="cls-1" />
  <circle cx="61.74" cy="179.01" r=".76" class="cls-2" />
  <circle cx="69.57" cy="179.01" r=".76" class="cls-2" />
  <circle cx="77.41" cy="179.01" r=".76" class="cls-2" />
  <circle cx="85.3" cy="179.01" r=".76" class="cls-2" />
  <circle cx="93.19" cy="179.01" r=".76" class="cls-2" />
  <circle cx="101.02" cy="179.01" r=".76" class="cls-2" />
  <circle cx="108.55" cy="179.11" r=".76" class="cls-2" />
  <path d="M185.86 175.37h59.69v7.28h-59.69z" class="cls-1" />
  <circle cx="192.3" cy="179.01" r=".76" class="cls-2" />
  <circle cx="200.13" cy="179.01" r=".76" class="cls-2" />
  <circle cx="207.96" cy="179.01" r=".76" class="cls-2" />
  <circle cx="215.85" cy="179.01" r=".76" class="cls-2" />
  <circle cx="223.75" cy="179.01" r=".76" class="cls-2" />
  <circle cx="231.58" cy="179.01" r=".76" class="cls-2" />
  <circle cx="239.1" cy="179.11" r=".76" class="cls-2" />
  <path d="M184.95 38.35h59.69v7.28h-59.69z" class="cls-1" />
  <circle cx="191.39" cy="41.99" r=".76" class="cls-2" />
  <circle cx="199.22" cy="41.99" r=".76" class="cls-2" />
  <circle cx="207.05" cy="41.99" r=".76" class="cls-2" />
  <circle cx="214.94" cy="41.99" r=".76" class="cls-2" />
  <circle cx="222.84" cy="41.99" r=".76" class="cls-2" />
  <circle cx="230.67" cy="41.99" r=".76" class="cls-2" />
  <circle cx="238.19" cy="42.09" r=".76" class="cls-2" />
  <path
    d="M1 6.7C1 3.55 2.58 1 4.54 1s3.54 2.55 3.54 5.7M9.29 6.7c0-3.15 1.58-5.7 3.54-5.7s3.54 2.55 3.54 5.7M17.64 6.7c0-3.15 1.58-5.7 3.54-5.7s3.54 2.55 3.54 5.7M25.93 6.7c0-3.15 1.58-5.7 3.54-5.7s3.54 2.55 3.54 5.7M34.09 6.7c0-3.15 1.58-5.7 3.54-5.7s3.54 2.55 3.54 5.7M42.38 6.7c0-3.15 1.58-5.7 3.54-5.7s3.54 2.55 3.54 5.7M50.74 6.7c0-3.15 1.58-5.7 3.54-5.7s3.54 2.55 3.54 5.7M59.03 6.7c0-3.15 1.58-5.7 3.54-5.7s3.54 2.55 3.54 5.7M67.5 6.7c0-3.15 1.58-5.7 3.54-5.7s3.54 2.55 3.54 5.7M75.79 6.7c0-3.15 1.58-5.7 3.54-5.7s3.54 2.55 3.54 5.7M84.15 6.7c0-3.15 1.58-5.7 3.54-5.7s3.54 2.55 3.54 5.7M92.43 6.7c0-3.15 1.58-5.7 3.54-5.7s3.54 2.55 3.54 5.7M100.6 6.7c0-3.15 1.58-5.7 3.54-5.7s3.54 2.55 3.54 5.7M108.88 6.7c0-3.15 1.58-5.7 3.54-5.7s3.54 2.55 3.54 5.7M117.24 6.7c0-3.15 1.58-5.7 3.54-5.7s3.54 2.55 3.54 5.7M125.53 6.7c0-3.15 1.58-5.7 3.54-5.7s3.54 2.55 3.54 5.7M133.42 6.7c0-3.15 1.58-5.7 3.54-5.7s3.54 2.55 3.54 5.7M141.71 6.7c0-3.15 1.58-5.7 3.54-5.7s3.54 2.55 3.54 5.7M150.06 6.7c0-3.15 1.58-5.7 3.54-5.7s3.54 2.55 3.54 5.7M158.35 6.7c0-3.15 1.58-5.7 3.54-5.7s3.54 2.55 3.54 5.7M166.51 6.7c0-3.15 1.58-5.7 3.54-5.7s3.54 2.55 3.54 5.7M174.8 6.7c0-3.15 1.58-5.7 3.54-5.7s3.54 2.55 3.54 5.7M183.16 6.7c0-3.15 1.58-5.7 3.54-5.7s3.54 2.55 3.54 5.7M191.44 6.7c0-3.15 1.58-5.7 3.54-5.7s3.54 2.55 3.54 5.7M199.92 6.7c0-3.15 1.58-5.7 3.54-5.7S207 3.55 207 6.7M208.21 6.7c0-3.15 1.58-5.7 3.54-5.7s3.54 2.55 3.54 5.7M216.57 6.7c0-3.15 1.58-5.7 3.54-5.7s3.54 2.55 3.54 5.7M224.85 6.7c0-3.15 1.58-5.7 3.54-5.7s3.54 2.55 3.54 5.7M233.02 6.7c0-3.15 1.58-5.7 3.54-5.7s3.54 2.55 3.54 5.7M241.3 6.7c0-3.15 1.58-5.7 3.54-5.7s3.54 2.55 3.54 5.7M249.66 6.7c0-3.15 1.58-5.7 3.54-5.7s3.54 2.55 3.54 5.7M257.95 6.7c0-3.15 1.58-5.7 3.54-5.7s3.54 2.55 3.54 5.7M266.38 6.7c0-3.15 1.58-5.7 3.54-5.7s3.54 2.55 3.54 5.7M274.66 6.7c0-3.15 1.58-5.7 3.54-5.7s3.54 2.55 3.54 5.7M283.02 6.7c0-3.15 1.58-5.7 3.54-5.7s3.54 2.55 3.54 5.7M291.31 6.7c0-3.15 1.58-5.7 3.54-5.7s3.54 2.55 3.54 5.7M299.47 6.7c0-3.15 1.58-5.7 3.54-5.7s3.54 2.55 3.54 5.7M307.76 6.7c0-3.15 1.58-5.7 3.54-5.7s3.54 2.55 3.54 5.7M316.12 6.7c0-3.15 1.58-5.7 3.54-5.7s3.54 2.55 3.54 5.7M324.4 6.7c0-3.15 1.58-5.7 3.54-5.7s3.54 2.55 3.54 5.7M332.88 6.7c0-3.15 1.58-5.7 3.54-5.7s3.54 2.55 3.54 5.7M341.17 6.7c0-3.15 1.58-5.7 3.54-5.7s3.54 2.55 3.54 5.7M349.52 6.7c0-3.15 1.58-5.7 3.54-5.7s3.54 2.55 3.54 5.7M357.81 6.7c0-3.15 1.58-5.7 3.54-5.7s3.54 2.55 3.54 5.7M365.97 6.7c0-3.15 1.58-5.7 3.54-5.7s3.54 2.55 3.54 5.7M374.26 6.7c0-3.15 1.58-5.7 3.54-5.7s3.54 2.55 3.54 5.7M382.62 6.7c0-3.15 1.58-5.7 3.54-5.7s3.54 2.55 3.54 5.7M390.91 6.7c0-3.15 1.58-5.7 3.54-5.7s3.54 2.55 3.54 5.7M398.8 6.7c0-3.15 1.58-5.7 3.54-5.7s3.54 2.55 3.54 5.7M407.08 6.7c0-3.15 1.58-5.7 3.54-5.7s3.54 2.55 3.54 5.7M415.44 6.7c0-3.15 1.58-5.7 3.54-5.7s3.54 2.55 3.54 5.7M423.73 6.7c0-3.15 1.58-5.7 3.54-5.7s3.54 2.55 3.54 5.7M431.89 6.7c0-3.15 1.58-5.7 3.54-5.7s3.54 2.55 3.54 5.7M440.18 6.7c0-3.15 1.58-5.7 3.54-5.7s3.54 2.55 3.54 5.7M448.54 6.7c0-3.15 1.58-5.7 3.54-5.7s3.54 2.55 3.54 5.7M456.82 6.7c0-3.15 1.58-5.7 3.54-5.7s3.54 2.55 3.54 5.7M465.3 6.7c0-3.15 1.58-5.7 3.54-5.7s3.54 2.55 3.54 5.7M473.59 6.7c0-3.15 1.58-5.7 3.54-5.7s3.54 2.55 3.54 5.7M481.94 6.7c0-3.15 1.58-5.7 3.54-5.7s3.54 2.55 3.54 5.7M490.23 6.7c0-3.15 1.58-5.7 3.54-5.7s3.54 2.55 3.54 5.7M498.39 6.7c0-3.15 1.58-5.7 3.54-5.7s3.54 2.55 3.54 5.7M506.68 6.7c0-3.15 1.58-5.7 3.54-5.7s3.54 2.55 3.54 5.7M515.04 6.7c0-3.15 1.58-5.7 3.54-5.7s3.54 2.55 3.54 5.7M523.32 6.7c0-3.15 1.58-5.7 3.54-5.7s3.54 2.55 3.54 5.7M531.95 6.7c0-3.15 1.58-5.7 3.54-5.7s3.54 2.55 3.54 5.7M540.24 6.7c0-3.15 1.58-5.7 3.54-5.7s3.54 2.55 3.54 5.7M548.6 6.7c0-3.15 1.58-5.7 3.54-5.7s3.54 2.55 3.54 5.7M556.89 6.7c0-3.15 1.58-5.7 3.54-5.7s3.54 2.55 3.54 5.7M565.05 6.7c0-3.15 1.58-5.7 3.54-5.7s3.54 2.55 3.54 5.7M573.33 6.7c0-3.15 1.58-5.7 3.54-5.7s3.54 2.55 3.54 5.7M581.69 6.7c0-3.15 1.58-5.7 3.54-5.7s3.54 2.55 3.54 5.7M589.98 6.7c0-3.15 1.58-5.7 3.54-5.7s3.54 2.55 3.54 5.7M598.46 6.7c0-3.15 1.58-5.7 3.54-5.7s3.54 2.55 3.54 5.7M606.74 6.7c0-3.15 1.58-5.7 3.54-5.7s3.54 2.55 3.54 5.7M615.1 6.7c0-3.15 1.58-5.7 3.54-5.7s3.54 2.55 3.54 5.7M623.39 6.7c0-3.15 1.58-5.7 3.54-5.7s3.54 2.55 3.54 5.7M631.55 6.7c0-3.15 1.58-5.7 3.54-5.7s3.54 2.55 3.54 5.7M639.84 6.7c0-3.15 1.58-5.7 3.54-5.7s3.54 2.55 3.54 5.7M648.19 6.7c0-3.15 1.58-5.7 3.54-5.7s3.54 2.55 3.54 5.7M656.48 6.7c0-3.15 1.58-5.7 3.54-5.7s3.54 2.55 3.54 5.7M664.92 6.7c0-3.15 1.58-5.7 3.54-5.7S672 3.55 672 6.7M673.2 6.7c0-3.15 1.58-5.7 3.54-5.7s3.54 2.55 3.54 5.7M681.66 6.7c0-3.15 1.58-5.7 3.54-5.7s3.54 2.55 3.54 5.7"
    class="cls-1" />
</svg>