<?xml version="1.0" encoding="utf-8"?>
<!-- Generator: Adobe Illustrator 27.1.0, SVG Export Plug-In . SVG Version: 6.00 Build 0)  -->
<svg version="1.1" id="Layer_1" xmlns="http://www.w3.org/2000/svg" xmlns:xlink="http://www.w3.org/1999/xlink" x="0px" y="0px"
	 viewBox="0 0 282 145" style="enable-background:new 0 0 282 145;" xml:space="preserve">
<style type="text/css">
	.st0{clip-path:url(#SVGID_00000064336377171364269580000004165365132858909104_);}
	.st1{fill:#4D4D4D;}
	.st2{opacity:0.99;fill:#4D4D4D;enable-background:new    ;}
	.st3{opacity:0.98;fill:#4D4D4D;enable-background:new    ;}
	.st4{opacity:0.97;fill:#4D4D4D;enable-background:new    ;}
	.st5{opacity:0.96;fill:#4D4D4D;enable-background:new    ;}
	.st6{opacity:0.95;fill:#4D4D4D;enable-background:new    ;}
	.st7{opacity:0.94;fill:#4D4D4D;enable-background:new    ;}
	.st8{opacity:0.93;fill:#4D4D4D;enable-background:new    ;}
	.st9{opacity:0.92;fill:#4D4D4D;enable-background:new    ;}
	.st10{opacity:0.91;fill:#4D4D4D;enable-background:new    ;}
	.st11{opacity:0.9;fill:#4D4D4D;enable-background:new    ;}
	.st12{opacity:0.89;fill:#4D4D4D;enable-background:new    ;}
	.st13{opacity:0.88;fill:#4D4D4D;enable-background:new    ;}
	.st14{opacity:0.87;fill:#4D4D4D;enable-background:new    ;}
	.st15{opacity:0.86;fill:#4D4D4D;enable-background:new    ;}
	.st16{opacity:0.85;fill:#4D4D4D;enable-background:new    ;}
	.st17{opacity:0.84;fill:#4D4D4D;enable-background:new    ;}
	.st18{opacity:0.83;fill:#4D4D4D;enable-background:new    ;}
	.st19{opacity:0.82;fill:#4D4D4D;enable-background:new    ;}
	.st20{opacity:0.81;fill:#4D4D4D;enable-background:new    ;}
	.st21{opacity:0.8;fill:#4D4D4D;enable-background:new    ;}
	.st22{opacity:0.79;fill:#4D4D4D;enable-background:new    ;}
	.st23{opacity:0.78;fill:#4D4D4D;enable-background:new    ;}
	.st24{opacity:0.77;fill:#4D4D4D;enable-background:new    ;}
	.st25{opacity:0.76;fill:#4D4D4D;enable-background:new    ;}
	.st26{opacity:0.75;fill:#4D4D4D;enable-background:new    ;}
	.st27{opacity:0.74;fill:#4D4D4D;enable-background:new    ;}
	.st28{opacity:0.73;fill:#4D4D4D;enable-background:new    ;}
	.st29{opacity:0.72;fill:#4D4D4D;enable-background:new    ;}
	.st30{opacity:0.71;fill:#4D4D4D;enable-background:new    ;}
	.st31{opacity:0.7;fill:#4D4D4D;enable-background:new    ;}
	.st32{opacity:0.69;fill:#4D4D4D;enable-background:new    ;}
	.st33{opacity:0.68;fill:#4D4D4D;enable-background:new    ;}
	.st34{opacity:0.67;fill:#4D4D4D;enable-background:new    ;}
	.st35{opacity:0.66;fill:#4D4D4D;enable-background:new    ;}
	.st36{opacity:0.65;fill:#4D4D4D;enable-background:new    ;}
	.st37{opacity:0.64;fill:#4D4D4D;enable-background:new    ;}
	.st38{opacity:0.63;fill:#4D4D4D;enable-background:new    ;}
	.st39{opacity:0.62;fill:#4D4D4D;enable-background:new    ;}
	.st40{opacity:0.61;fill:#4D4D4D;enable-background:new    ;}
	.st41{opacity:0.6;fill:#4D4D4D;enable-background:new    ;}
	.st42{opacity:0.59;fill:#4D4D4D;enable-background:new    ;}
	.st43{opacity:0.58;fill:#4D4D4D;enable-background:new    ;}
	.st44{opacity:0.57;fill:#4D4D4D;enable-background:new    ;}
	.st45{opacity:0.56;fill:#4D4D4D;enable-background:new    ;}
	.st46{opacity:0.55;fill:#4D4D4D;enable-background:new    ;}
	.st47{opacity:0.54;fill:#4D4D4D;enable-background:new    ;}
	.st48{opacity:0.53;fill:#4D4D4D;enable-background:new    ;}
	.st49{opacity:0.52;fill:#4D4D4D;enable-background:new    ;}
	.st50{opacity:0.51;fill:#4D4D4D;enable-background:new    ;}
	.st51{opacity:0.5;fill:#4D4D4D;enable-background:new    ;}
	.st52{opacity:0.49;fill:#4D4D4D;enable-background:new    ;}
	.st53{opacity:0.48;fill:#4D4D4D;enable-background:new    ;}
	.st54{opacity:0.47;fill:#4D4D4D;enable-background:new    ;}
	.st55{opacity:0.46;fill:#4D4D4D;enable-background:new    ;}
	.st56{opacity:0.45;fill:#4D4D4D;enable-background:new    ;}
	.st57{opacity:0.44;fill:#4D4D4D;enable-background:new    ;}
	.st58{opacity:0.43;fill:#4D4D4D;enable-background:new    ;}
	.st59{opacity:0.42;fill:#4D4D4D;enable-background:new    ;}
	.st60{opacity:0.41;fill:#4D4D4D;enable-background:new    ;}
	.st61{opacity:0.39;fill:#4D4D4D;enable-background:new    ;}
	.st62{opacity:0.38;fill:#4D4D4D;enable-background:new    ;}
	.st63{opacity:0.37;fill:#4D4D4D;enable-background:new    ;}
	.st64{opacity:0.34;fill:#4D4D4D;enable-background:new    ;}
	.st65{opacity:0.33;fill:#4D4D4D;enable-background:new    ;}
	.st66{opacity:0.3;fill:#4D4D4D;enable-background:new    ;}
</style>
<g>
	<defs>
		<rect id="SVGID_1_" y="-68.5" width="282" height="282"/>
	</defs>
	<clipPath id="SVGID_00000039101990817270023130000008065757273284592544_">
		<use xlink:href="#SVGID_1_"  style="overflow:visible;"/>
	</clipPath>
	<g style="clip-path:url(#SVGID_00000039101990817270023130000008065757273284592544_);">
		<path class="st1" d="M143,71.7c0.1,0,0.2-0.1,0.2-0.2c0-0.1-0.1-0.2-0.2-0.2c-0.1,0-0.2,0.1-0.2,0.2
			C142.8,71.6,142.9,71.7,143,71.7z"/>
		<path class="st1" d="M142.6,73.7c0.1,0,0.2-0.1,0.2-0.2s-0.1-0.2-0.2-0.2c-0.1,0-0.2,0.1-0.2,0.2S142.4,73.7,142.6,73.7z"/>
		<path class="st1" d="M140.6,75.1c0.1,0,0.2-0.1,0.2-0.2c0-0.1-0.1-0.2-0.2-0.2c-0.1,0-0.2,0.1-0.2,0.2
			C140.3,75,140.4,75.1,140.6,75.1z"/>
		<path class="st1" d="M138.1,74.7c0.1,0,0.2-0.1,0.2-0.2c0-0.1-0.1-0.2-0.2-0.2c-0.1,0-0.2,0.1-0.2,0.2
			C137.9,74.5,138,74.7,138.1,74.7z"/>
		<path class="st2" d="M136.6,72.2c0.1,0,0.2-0.1,0.2-0.2c0-0.1-0.1-0.2-0.2-0.2c-0.1,0-0.2,0.1-0.2,0.2
			C136.4,72.1,136.5,72.2,136.6,72.2z"/>
		<path class="st2" d="M137.1,69.2c0.1,0,0.2-0.1,0.2-0.2c0-0.1-0.1-0.2-0.2-0.2s-0.2,0.1-0.2,0.2C136.9,69.1,137,69.2,137.1,69.2z"
			/>
		<path class="st2" d="M140.1,67.2c0.1,0,0.2-0.1,0.2-0.2c0-0.1-0.1-0.2-0.2-0.2c-0.1,0-0.2,0.1-0.2,0.2
			C139.8,67.1,139.9,67.2,140.1,67.2z"/>
		<path class="st2" d="M143.5,67.7c0.1,0,0.2-0.1,0.2-0.2c0-0.1-0.1-0.2-0.2-0.2c-0.1,0-0.2,0.1-0.2,0.2
			C143.3,67.6,143.4,67.7,143.5,67.7z"/>
		<path class="st2" d="M146,70.7c0.1,0,0.2-0.1,0.2-0.2c0-0.1-0.1-0.2-0.2-0.2c-0.1,0-0.2,0.1-0.2,0.2
			C145.8,70.6,145.9,70.7,146,70.7z"/>
		<path class="st2" d="M145.5,74.7c0.1,0,0.2-0.1,0.2-0.2c0-0.1-0.1-0.2-0.2-0.2c-0.1,0-0.2,0.1-0.2,0.2
			C145.3,74.5,145.4,74.7,145.5,74.7z"/>
		<path class="st2" d="M142.1,77.6c0.1,0,0.2-0.1,0.2-0.2c0-0.1-0.1-0.2-0.2-0.2s-0.2,0.1-0.2,0.2C141.8,77.5,141.9,77.6,142.1,77.6
			z"/>
		<path class="st2" d="M137.6,77.6c0.1,0,0.2-0.1,0.2-0.2c0-0.1-0.1-0.2-0.2-0.2c-0.1,0-0.2,0.1-0.2,0.2
			C137.4,77.5,137.5,77.6,137.6,77.6z"/>
		<path class="st3" d="M134.2,73.7c0.1,0,0.2-0.1,0.2-0.2s-0.1-0.2-0.2-0.2c-0.1,0-0.2,0.1-0.2,0.2S134,73.7,134.2,73.7z"/>
		<path class="st3" d="M134.2,68.2c0.1,0,0.2-0.1,0.2-0.2c0-0.1-0.1-0.2-0.2-0.2c-0.1,0-0.2,0.1-0.2,0.2
			C133.9,68.1,134,68.2,134.2,68.2z"/>
		<path class="st3" d="M138.1,64.3c0.1,0,0.2-0.1,0.2-0.2c0-0.1-0.1-0.2-0.2-0.2c-0.1,0-0.2,0.1-0.2,0.2
			C137.9,64.2,138,64.3,138.1,64.3z"/>
		<path class="st3" d="M143.5,64.3c0.1,0,0.2-0.1,0.2-0.2c0-0.1-0.1-0.2-0.2-0.2c-0.1,0-0.2,0.1-0.2,0.2
			C143.3,64.2,143.4,64.3,143.5,64.3z"/>
		<path class="st3" d="M148.5,68.2c0.1,0,0.2-0.1,0.2-0.2c0-0.1-0.1-0.2-0.2-0.2c-0.1,0-0.2,0.1-0.2,0.2
			C148.2,68.1,148.3,68.2,148.5,68.2z"/>
		<path class="st3" d="M149,74.7c0.1,0,0.2-0.1,0.2-0.2c0-0.1-0.1-0.2-0.2-0.2c-0.1,0-0.2,0.1-0.2,0.2
			C148.7,74.5,148.8,74.7,149,74.7z"/>
		<path class="st3" d="M144.5,80.1c0.1,0,0.2-0.1,0.2-0.2c0-0.1-0.1-0.2-0.2-0.2c-0.1,0-0.2,0.1-0.2,0.2
			C144.3,80,144.4,80.1,144.5,80.1z"/>
		<path class="st4" d="M137.6,81.1c0.1,0,0.2-0.1,0.2-0.2s-0.1-0.2-0.2-0.2c-0.1,0-0.2,0.1-0.2,0.2S137.5,81.1,137.6,81.1z"/>
		<path class="st4" d="M131.7,76.6c0.1,0,0.2-0.1,0.2-0.2c0-0.1-0.1-0.2-0.2-0.2c-0.1,0-0.2,0.1-0.2,0.2
			C131.4,76.5,131.6,76.6,131.7,76.6z"/>
		<path class="st4" d="M130.7,69.5c0.3,0,0.5-0.2,0.5-0.5c0-0.3-0.2-0.5-0.5-0.5s-0.5,0.2-0.5,0.5C130.2,69.2,130.4,69.5,130.7,69.5
			z"/>
		<path class="st4" d="M134.7,63.1c0.3,0,0.5-0.2,0.5-0.5c0-0.3-0.2-0.5-0.5-0.5s-0.5,0.2-0.5,0.5C134.2,62.8,134.4,63.1,134.7,63.1
			z"/>
		<path class="st4" d="M142.6,61.1c0.3,0,0.5-0.2,0.5-0.5c0-0.3-0.2-0.5-0.5-0.5c-0.3,0-0.5,0.2-0.5,0.5
			C142.1,60.9,142.3,61.1,142.6,61.1z"/>
		<path class="st4" d="M150,65.5c0.3,0,0.5-0.2,0.5-0.5c0-0.3-0.2-0.5-0.5-0.5c-0.3,0-0.5,0.2-0.5,0.5
			C149.5,65.3,149.7,65.5,150,65.5z"/>
		<path class="st4" d="M152.4,73.9c0.3,0,0.5-0.2,0.5-0.5c0-0.3-0.2-0.5-0.5-0.5s-0.5,0.2-0.5,0.5C151.9,73.7,152.1,73.9,152.4,73.9
			z"/>
		<path class="st4" d="M148,81.8c0.3,0,0.5-0.2,0.5-0.5c0-0.3-0.2-0.5-0.5-0.5c-0.3,0-0.5,0.2-0.5,0.5
			C147.5,81.6,147.7,81.8,148,81.8z"/>
		<path class="st5" d="M139.1,84.3c0.3,0,0.5-0.2,0.5-0.5c0-0.3-0.2-0.5-0.5-0.5s-0.5,0.2-0.5,0.5C138.6,84.1,138.8,84.3,139.1,84.3
			z"/>
		<path class="st5" d="M130.7,80.3c0.3,0,0.5-0.2,0.5-0.5c0-0.3-0.2-0.5-0.5-0.5s-0.5,0.2-0.5,0.5C130.2,80.1,130.4,80.3,130.7,80.3
			z"/>
		<path class="st5" d="M127.3,71.4c0.3,0,0.5-0.2,0.5-0.5c0-0.3-0.2-0.5-0.5-0.5c-0.3,0-0.5,0.2-0.5,0.5
			C126.8,71.2,127,71.4,127.3,71.4z"/>
		<path class="st5" d="M131.2,62.1c0.3,0,0.5-0.2,0.5-0.5c0-0.3-0.2-0.5-0.5-0.5s-0.5,0.2-0.5,0.5C130.7,61.8,130.9,62.1,131.2,62.1
			z"/>
		<path class="st5" d="M140.6,57.6c0.3,0,0.5-0.2,0.5-0.5c0-0.3-0.2-0.5-0.5-0.5c-0.3,0-0.5,0.2-0.5,0.5
			C140.1,57.4,140.3,57.6,140.6,57.6z"/>
		<path class="st5" d="M150.4,61.6c0.3,0,0.5-0.2,0.5-0.5c0-0.3-0.2-0.5-0.5-0.5c-0.3,0-0.5,0.2-0.5,0.5
			C150,61.4,150.2,61.6,150.4,61.6z"/>
		<path class="st5" d="M155.4,70.9c0.3,0,0.5-0.2,0.5-0.5c0-0.3-0.2-0.5-0.5-0.5c-0.3,0-0.5,0.2-0.5,0.5
			C154.9,70.7,155.1,70.9,155.4,70.9z"/>
		<path class="st6" d="M151.9,81.8c0.3,0,0.5-0.2,0.5-0.5c0-0.3-0.2-0.5-0.5-0.5c-0.3,0-0.5,0.2-0.5,0.5
			C151.4,81.6,151.7,81.8,151.9,81.8z"/>
		<path class="st6" d="M142.1,87.2c0.3,0,0.5-0.2,0.5-0.5c0-0.3-0.2-0.5-0.5-0.5c-0.3,0-0.5,0.2-0.5,0.5
			C141.6,87,141.8,87.2,142.1,87.2z"/>
		<path class="st6" d="M130.7,84.8c0.3,0,0.5-0.2,0.5-0.5c0-0.3-0.2-0.5-0.5-0.5s-0.5,0.2-0.5,0.5C130.2,84.5,130.4,84.8,130.7,84.8
			z"/>
		<path class="st6" d="M124.3,74.4c0.3,0,0.5-0.2,0.5-0.5c0-0.3-0.2-0.5-0.5-0.5c-0.3,0-0.5,0.2-0.5,0.5
			C123.8,74.2,124,74.4,124.3,74.4z"/>
		<path class="st6" d="M126.8,62.6c0.3,0,0.5-0.2,0.5-0.5c0-0.3-0.2-0.5-0.5-0.5c-0.3,0-0.5,0.2-0.5,0.5
			C126.3,62.3,126.5,62.6,126.8,62.6z"/>
		<path class="st6" d="M137.1,55.2c0.3,0,0.5-0.2,0.5-0.5c0-0.3-0.2-0.5-0.5-0.5c-0.3,0-0.5,0.2-0.5,0.5
			C136.6,54.9,136.9,55.2,137.1,55.2z"/>
		<path class="st6" d="M150,57.1c0.3,0,0.5-0.2,0.5-0.5c0-0.3-0.2-0.5-0.5-0.5c-0.3,0-0.5,0.2-0.5,0.5
			C149.5,56.9,149.7,57.1,150,57.1z"/>
		<path class="st6" d="M157.8,67.5c0.3,0,0.5-0.2,0.5-0.5c0-0.3-0.2-0.5-0.5-0.5s-0.5,0.2-0.5,0.5C157.4,67.3,157.6,67.5,157.8,67.5
			z"/>
		<path class="st7" d="M156.4,80.8c0.3,0,0.5-0.2,0.5-0.5c0-0.3-0.2-0.5-0.5-0.5c-0.3,0-0.5,0.2-0.5,0.5
			C155.9,80.6,156.1,80.8,156.4,80.8z"/>
		<path class="st7" d="M146,89.7c0.3,0,0.5-0.2,0.5-0.5c0-0.3-0.2-0.5-0.5-0.5c-0.3,0-0.5,0.2-0.5,0.5
			C145.5,89.5,145.7,89.7,146,89.7z"/>
		<path class="st7" d="M132.2,89.2c0.3,0,0.5-0.2,0.5-0.5c0-0.3-0.2-0.5-0.5-0.5s-0.5,0.2-0.5,0.5C131.7,89,131.9,89.2,132.2,89.2z"
			/>
		<path class="st7" d="M122.3,78.8c0.3,0,0.5-0.2,0.5-0.5c0-0.3-0.2-0.5-0.5-0.5c-0.3,0-0.5,0.2-0.5,0.5
			C121.8,78.6,122,78.8,122.3,78.8z"/>
		<path class="st7" d="M122.3,64c0.3,0,0.5-0.2,0.5-0.5c0-0.3-0.2-0.5-0.5-0.5c-0.3,0-0.5,0.2-0.5,0.5C121.8,63.8,122,64,122.3,64z"
			/>
		<path class="st7" d="M132.7,53.7c0.3,0,0.5-0.2,0.5-0.5c0-0.3-0.2-0.5-0.5-0.5c-0.3,0-0.5,0.2-0.5,0.5
			C132.2,53.5,132.4,53.7,132.7,53.7z"/>
		<path class="st7" d="M147.5,52.7c0.3,0,0.5-0.2,0.5-0.5c0-0.3-0.2-0.5-0.5-0.5c-0.3,0-0.5,0.2-0.5,0.5
			C147,52.5,147.2,52.7,147.5,52.7z"/>
		<path class="st8" d="M159.3,62.6c0.3,0,0.5-0.2,0.5-0.5c0-0.3-0.2-0.5-0.5-0.5s-0.5,0.2-0.5,0.5C158.8,62.3,159.1,62.6,159.3,62.6
			z"/>
		<path class="st8" d="M160.8,78.4c0.3,0,0.5-0.2,0.5-0.5c0-0.3-0.2-0.5-0.5-0.5s-0.5,0.2-0.5,0.5C160.3,78.1,160.5,78.4,160.8,78.4
			z"/>
		<path class="st8" d="M150.9,90.7c0.3,0,0.5-0.2,0.5-0.5c0-0.3-0.2-0.5-0.5-0.5c-0.3,0-0.5,0.2-0.5,0.5
			C150.4,90.5,150.7,90.7,150.9,90.7z"/>
		<path class="st8" d="M135.1,93.2c0.3,0,0.5-0.2,0.5-0.5c0-0.3-0.2-0.5-0.5-0.5c-0.3,0-0.5,0.2-0.5,0.5
			C134.7,92.9,134.9,93.2,135.1,93.2z"/>
		<path class="st8" d="M121.8,83.8c0.3,0,0.5-0.2,0.5-0.5c0-0.3-0.2-0.5-0.5-0.5c-0.3,0-0.5,0.2-0.5,0.5
			C121.3,83.6,121.6,83.8,121.8,83.8z"/>
		<path class="st8" d="M118.4,67.5c0.3,0,0.5-0.2,0.5-0.5c0-0.3-0.2-0.5-0.5-0.5c-0.3,0-0.5,0.2-0.5,0.5
			C117.9,67.3,118.1,67.5,118.4,67.5z"/>
		<path class="st8" d="M127.3,53.4c0.4,0,0.7-0.3,0.7-0.7c0-0.4-0.3-0.7-0.7-0.7c-0.4,0-0.7,0.3-0.7,0.7
			C126.5,53.1,126.8,53.4,127.3,53.4z"/>
		<path class="st8" d="M144,49c0.4,0,0.7-0.3,0.7-0.7c0-0.4-0.3-0.7-0.7-0.7c-0.4,0-0.7,0.3-0.7,0.7C143.3,48.7,143.6,49,144,49z"/>
		<path class="st9" d="M159.3,57.4c0.4,0,0.7-0.3,0.7-0.7s-0.3-0.7-0.7-0.7s-0.7,0.3-0.7,0.7S158.9,57.4,159.3,57.4z"/>
		<path class="st9" d="M164.8,74.7c0.4,0,0.7-0.3,0.7-0.7c0-0.4-0.3-0.7-0.7-0.7s-0.7,0.3-0.7,0.7C164,74.3,164.3,74.7,164.8,74.7z"
			/>
		<path class="st9" d="M156.9,90.9c0.4,0,0.7-0.3,0.7-0.7c0-0.4-0.3-0.7-0.7-0.7s-0.7,0.3-0.7,0.7C156.1,90.6,156.5,90.9,156.9,90.9
			z"/>
		<path class="st9" d="M139.6,97.4c0.4,0,0.7-0.3,0.7-0.7c0-0.4-0.3-0.7-0.7-0.7s-0.7,0.3-0.7,0.7C138.8,97,139.2,97.4,139.6,97.4z"
			/>
		<path class="st9" d="M122.3,89.9c0.4,0,0.7-0.3,0.7-0.7c0-0.4-0.3-0.7-0.7-0.7c-0.4,0-0.7,0.3-0.7,0.7
			C121.6,89.6,121.9,89.9,122.3,89.9z"/>
		<path class="st9" d="M114.9,72.2c0.4,0,0.7-0.3,0.7-0.7c0-0.4-0.3-0.7-0.7-0.7c-0.4,0-0.7,0.3-0.7,0.7
			C114.2,71.9,114.5,72.2,114.9,72.2z"/>
		<path class="st9" d="M121.8,54.4c0.4,0,0.7-0.3,0.7-0.7s-0.3-0.7-0.7-0.7c-0.4,0-0.7,0.3-0.7,0.7S121.4,54.4,121.8,54.4z"/>
		<path class="st10" d="M139.1,45.5c0.4,0,0.7-0.3,0.7-0.7s-0.3-0.7-0.7-0.7c-0.4,0-0.7,0.3-0.7,0.7S138.7,45.5,139.1,45.5z"/>
		<path class="st10" d="M157.8,51.9c0.4,0,0.7-0.3,0.7-0.7s-0.3-0.7-0.7-0.7s-0.7,0.3-0.7,0.7S157.4,51.9,157.8,51.9z"/>
		<path class="st10" d="M167.7,69.2c0.4,0,0.7-0.3,0.7-0.7c0-0.4-0.3-0.7-0.7-0.7c-0.4,0-0.7,0.3-0.7,0.7
			C167,68.9,167.3,69.2,167.7,69.2z"/>
		<path class="st10" d="M162.3,89c0.4,0,0.7-0.3,0.7-0.7c0-0.4-0.3-0.7-0.7-0.7s-0.7,0.3-0.7,0.7C161.6,88.6,161.9,89,162.3,89z"/>
		<path class="st10" d="M145,99.8c0.4,0,0.7-0.3,0.7-0.7c0-0.4-0.3-0.7-0.7-0.7c-0.4,0-0.7,0.3-0.7,0.7
			C144.3,99.5,144.6,99.8,145,99.8z"/>
		<path class="st10" d="M124.3,95.4c0.4,0,0.7-0.3,0.7-0.7c0-0.4-0.3-0.7-0.7-0.7c-0.4,0-0.7,0.3-0.7,0.7
			C123.6,95,123.9,95.4,124.3,95.4z"/>
		<path class="st10" d="M112.4,78.1c0.4,0,0.7-0.3,0.7-0.7c0-0.4-0.3-0.7-0.7-0.7c-0.4,0-0.7,0.3-0.7,0.7
			C111.7,77.8,112,78.1,112.4,78.1z"/>
		<path class="st11" d="M115.9,56.9c0.4,0,0.7-0.3,0.7-0.7s-0.3-0.7-0.7-0.7c-0.4,0-0.7,0.3-0.7,0.7S115.5,56.9,115.9,56.9z"/>
		<path class="st11" d="M133.2,43.6c0.4,0,0.7-0.3,0.7-0.7c0-0.4-0.3-0.7-0.7-0.7c-0.4,0-0.7,0.3-0.7,0.7
			C132.4,43.2,132.8,43.6,133.2,43.6z"/>
		<path class="st11" d="M154.9,46c0.4,0,0.7-0.3,0.7-0.7c0-0.4-0.3-0.7-0.7-0.7c-0.4,0-0.7,0.3-0.7,0.7
			C154.1,45.7,154.5,46,154.9,46z"/>
		<path class="st11" d="M169.2,62.8c0.4,0,0.7-0.3,0.7-0.7s-0.3-0.7-0.7-0.7s-0.7,0.3-0.7,0.7S168.8,62.8,169.2,62.8z"/>
		<path class="st11" d="M168.2,85.5c0.4,0,0.7-0.3,0.7-0.7c0-0.4-0.3-0.7-0.7-0.7s-0.7,0.3-0.7,0.7
			C167.5,85.2,167.8,85.5,168.2,85.5z"/>
		<path class="st11" d="M151.4,101.3c0.4,0,0.7-0.3,0.7-0.7c0-0.4-0.3-0.7-0.7-0.7s-0.7,0.3-0.7,0.7
			C150.7,101,151,101.3,151.4,101.3z"/>
		<path class="st11" d="M128.2,100.8c0.4,0,0.7-0.3,0.7-0.7c0-0.4-0.3-0.7-0.7-0.7c-0.4,0-0.7,0.3-0.7,0.7
			C127.5,100.5,127.8,100.8,128.2,100.8z"/>
		<path class="st11" d="M111.5,85c0.4,0,0.7-0.3,0.7-0.7c0-0.4-0.3-0.7-0.7-0.7c-0.4,0-0.7,0.3-0.7,0.7
			C110.7,84.7,111.1,85,111.5,85z"/>
		<path class="st12" d="M110.5,61.3c0.4,0,0.7-0.3,0.7-0.7c0-0.4-0.3-0.7-0.7-0.7c-0.4,0-0.7,0.3-0.7,0.7
			C109.7,61,110.1,61.3,110.5,61.3z"/>
		<path class="st12" d="M126.3,43.1c0.4,0,0.7-0.3,0.7-0.7s-0.3-0.7-0.7-0.7c-0.4,0-0.7,0.3-0.7,0.7S125.9,43.1,126.3,43.1z"/>
		<path class="st12" d="M150.4,40.6c0.4,0,0.7-0.3,0.7-0.7s-0.3-0.7-0.7-0.7c-0.4,0-0.7,0.3-0.7,0.7S150,40.6,150.4,40.6z"/>
		<path class="st12" d="M169.7,55.9c0.4,0,0.7-0.3,0.7-0.7c0-0.4-0.3-0.7-0.7-0.7s-0.7,0.3-0.7,0.7C169,55.6,169.3,55.9,169.7,55.9z
			"/>
		<path class="st12" d="M173.1,80.6c0.4,0,0.7-0.3,0.7-0.7c0-0.4-0.3-0.7-0.7-0.7c-0.4,0-0.7,0.3-0.7,0.7
			C172.4,80.2,172.7,80.6,173.1,80.6z"/>
		<path class="st12" d="M158.8,100.8c0.4,0,0.7-0.3,0.7-0.7c0-0.4-0.3-0.7-0.7-0.7s-0.7,0.3-0.7,0.7
			C158.1,100.5,158.4,100.8,158.8,100.8z"/>
		<path class="st12" d="M133.7,105.7c0.4,0,0.7-0.3,0.7-0.7c0-0.4-0.3-0.7-0.7-0.7s-0.7,0.3-0.7,0.7
			C132.9,105.4,133.3,105.7,133.7,105.7z"/>
		<path class="st13" d="M112,92.4c0.4,0,0.7-0.3,0.7-0.7c0-0.4-0.3-0.7-0.7-0.7c-0.4,0-0.7,0.3-0.7,0.7
			C111.2,92.1,111.5,92.4,112,92.4z"/>
		<path class="st13" d="M106,67.2c0.4,0,0.7-0.3,0.7-0.7c0-0.4-0.3-0.7-0.7-0.7c-0.4,0-0.7,0.3-0.7,0.7
			C105.3,66.9,105.6,67.2,106,67.2z"/>
		<path class="st13" d="M118.9,44.1c0.4,0,0.7-0.3,0.7-0.7c0-0.4-0.3-0.7-0.7-0.7c-0.4,0-0.7,0.3-0.7,0.7
			C118.1,43.7,118.5,44.1,118.9,44.1z"/>
		<path class="st13" d="M144,36.7c0.4,0,0.7-0.3,0.7-0.7c0-0.4-0.3-0.7-0.7-0.7c-0.4,0-0.7,0.3-0.7,0.7
			C143.3,36.3,143.6,36.7,144,36.7z"/>
		<path class="st13" d="M167.7,48.7c0.5,0,1-0.4,1-1c0-0.5-0.4-1-1-1c-0.5,0-1,0.4-1,1C166.7,48.3,167.2,48.7,167.7,48.7z"/>
		<path class="st13" d="M177.1,73.9c0.5,0,1-0.4,1-1c0-0.5-0.4-1-1-1c-0.5,0-1,0.4-1,1C176.1,73.5,176.6,73.9,177.1,73.9z"/>
		<path class="st13" d="M166.2,99.1c0.5,0,1-0.4,1-1c0-0.5-0.4-1-1-1s-1,0.4-1,1C165.3,98.6,165.7,99.1,166.2,99.1z"/>
		<path class="st13" d="M140.6,109.9c0.5,0,1-0.4,1-1c0-0.5-0.4-1-1-1c-0.5,0-1,0.4-1,1C139.6,109.5,140,109.9,140.6,109.9z"/>
		<path class="st14" d="M114.9,100.1c0.5,0,1-0.4,1-1c0-0.5-0.4-1-1-1s-1,0.4-1,1C113.9,99.6,114.4,100.1,114.9,100.1z"/>
		<path class="st14" d="M102.6,74.4c0.5,0,1-0.4,1-1c0-0.5-0.4-1-1-1s-1,0.4-1,1C101.6,74,102,74.4,102.6,74.4z"/>
		<path class="st14" d="M111.5,47.8c0.5,0,1-0.4,1-1c0-0.5-0.4-1-1-1c-0.5,0-1,0.4-1,1C110.5,47.3,110.9,47.8,111.5,47.8z"/>
		<path class="st14" d="M136.6,33.9c0.5,0,1-0.4,1-1c0-0.5-0.4-1-1-1s-1,0.4-1,1C135.6,33.5,136.1,33.9,136.6,33.9z"/>
		<path class="st14" d="M164.3,41.3c0.5,0,1-0.4,1-1c0-0.5-0.4-1-1-1c-0.5,0-1,0.4-1,1C163.3,40.9,163.7,41.3,164.3,41.3z"/>
		<path class="st14" d="M179.6,66c0.5,0,1-0.4,1-1c0-0.5-0.4-1-1-1c-0.5,0-1,0.4-1,1C178.6,65.6,179,66,179.6,66z"/>
		<path class="st14" d="M173.6,95.1c0.5,0,1-0.4,1-1c0-0.5-0.4-1-1-1s-1,0.4-1,1C172.7,94.7,173.1,95.1,173.6,95.1z"/>
		<path class="st15" d="M149,111.9c0.5,0,1-0.4,1-1c0-0.5-0.4-1-1-1c-0.5,0-1,0.4-1,1C148,111.5,148.4,111.9,149,111.9z"/>
		<path class="st15" d="M119.4,107c0.5,0,1-0.4,1-1c0-0.5-0.4-1-1-1s-1,0.4-1,1C118.4,106.5,118.8,107,119.4,107z"/>
		<path class="st15" d="M101.1,82.8c0.5,0,1-0.4,1-1c0-0.5-0.4-1-1-1c-0.5,0-1,0.4-1,1C100.1,82.4,100.6,82.8,101.1,82.8z"/>
		<path class="st15" d="M104.1,52.7c0.5,0,1-0.4,1-1c0-0.5-0.4-1-1-1c-0.5,0-1,0.4-1,1C103.1,52.2,103.5,52.7,104.1,52.7z"/>
		<path class="st15" d="M127.7,32.5c0.5,0,1-0.4,1-1c0-0.5-0.4-1-1-1c-0.5,0-1,0.4-1,1C126.8,32,127.2,32.5,127.7,32.5z"/>
		<path class="st15" d="M158.8,34.4c0.5,0,1-0.4,1-1c0-0.5-0.4-1-1-1s-1,0.4-1,1C157.8,34,158.3,34.4,158.8,34.4z"/>
		<path class="st15" d="M180.6,57.1c0.5,0,1-0.4,1-1c0-0.5-0.4-1-1-1c-0.5,0-1,0.4-1,1C179.6,56.7,180,57.1,180.6,57.1z"/>
		<path class="st15" d="M180.1,89.2c0.5,0,1-0.4,1-1c0-0.5-0.4-1-1-1c-0.5,0-1,0.4-1,1C179.1,88.8,179.5,89.2,180.1,89.2z"/>
		<path class="st16" d="M157.8,111.9c0.5,0,1-0.4,1-1c0-0.5-0.4-1-1-1c-0.5,0-1,0.4-1,1C156.9,111.5,157.3,111.9,157.8,111.9z"/>
		<path class="st16" d="M125.8,113.4c0.5,0,1-0.4,1-1c0-0.5-0.4-1-1-1c-0.5,0-1,0.4-1,1C124.8,112.9,125.2,113.4,125.8,113.4z"/>
		<path class="st16" d="M101.1,92.2c0.5,0,1-0.4,1-1c0-0.5-0.4-1-1-1c-0.5,0-1,0.4-1,1C100.1,91.7,100.6,92.2,101.1,92.2z"/>
		<path class="st16" d="M98.1,59.6c0.5,0,1-0.4,1-1c0-0.5-0.4-1-1-1s-1,0.4-1,1C97.1,59.2,97.6,59.6,98.1,59.6z"/>
		<path class="st16" d="M118.4,33.4c0.5,0,1-0.4,1-1c0-0.5-0.4-1-1-1c-0.5,0-1,0.4-1,1C117.4,33,117.8,33.4,118.4,33.4z"/>
		<path class="st16" d="M151.4,28.5c0.5,0,1-0.4,1-1c0-0.5-0.4-1-1-1c-0.5,0-1,0.4-1,1C150.4,28.1,150.9,28.5,151.4,28.5z"/>
		<path class="st16" d="M179.1,48.2c0.5,0,1-0.4,1-1c0-0.5-0.4-1-1-1c-0.5,0-1,0.4-1,1C178.1,47.8,178.5,48.2,179.1,48.2z"/>
		<path class="st17" d="M185.5,81.3c0.5,0,1-0.4,1-1s-0.4-1-1-1c-0.5,0-1,0.4-1,1S184.9,81.3,185.5,81.3z"/>
		<path class="st17" d="M167.2,110.4c0.5,0,1-0.4,1-1c0-0.5-0.4-1-1-1s-1,0.4-1,1C166.2,110,166.7,110.4,167.2,110.4z"/>
		<path class="st17" d="M133.7,118.8c0.5,0,1-0.4,1-1c0-0.5-0.4-1-1-1c-0.5,0-1,0.4-1,1C132.7,118.4,133.1,118.8,133.7,118.8z"/>
		<path class="st17" d="M103.6,101.5c0.5,0,1-0.4,1-1c0-0.5-0.4-1-1-1c-0.5,0-1,0.4-1,1C102.6,101.1,103,101.5,103.6,101.5z"/>
		<path class="st17" d="M93.2,68c0.5,0,1-0.4,1-1c0-0.5-0.4-1-1-1c-0.5,0-1,0.4-1,1C92.2,67.5,92.7,68,93.2,68z"/>
		<path class="st17" d="M109,36.4c0.5,0,1-0.4,1-1c0-0.5-0.4-1-1-1c-0.5,0-1,0.4-1,1C108,36,108.4,36.4,109,36.4z"/>
		<path class="st17" d="M142.6,24.1c0.5,0,1-0.4,1-1c0-0.5-0.4-1-1-1c-0.5,0-1,0.4-1,1C141.6,23.6,142,24.1,142.6,24.1z"/>
		<path class="st17" d="M175.6,38.9c0.5,0,1-0.4,1-1c0-0.5-0.4-1-1-1c-0.5,0-1,0.4-1,1C174.6,38.4,175.1,38.9,175.6,38.9z"/>
		<path class="st18" d="M189.4,72.2c0.7,0,1.2-0.6,1.2-1.2c0-0.7-0.6-1.2-1.2-1.2c-0.7,0-1.2,0.6-1.2,1.2
			C188.2,71.6,188.8,72.2,189.4,72.2z"/>
		<path class="st18" d="M176.6,106.2c0.7,0,1.2-0.6,1.2-1.2c0-0.7-0.6-1.2-1.2-1.2c-0.7,0-1.2,0.6-1.2,1.2
			C175.4,105.7,175.9,106.2,176.6,106.2z"/>
		<path class="st18" d="M143.5,122.5c0.7,0,1.2-0.6,1.2-1.2c0-0.7-0.6-1.2-1.2-1.2c-0.7,0-1.2,0.6-1.2,1.2
			C142.3,122,142.9,122.5,143.5,122.5z"/>
		<path class="st18" d="M108,111.2c0.7,0,1.2-0.6,1.2-1.2s-0.6-1.2-1.2-1.2c-0.7,0-1.2,0.6-1.2,1.2S107.3,111.2,108,111.2z"/>
		<path class="st18" d="M90.2,78.1c0.7,0,1.2-0.6,1.2-1.2c0-0.7-0.6-1.2-1.2-1.2c-0.7,0-1.2,0.6-1.2,1.2
			C89,77.6,89.6,78.1,90.2,78.1z"/>
		<path class="st18" d="M100.1,42.1c0.7,0,1.2-0.6,1.2-1.2c0-0.7-0.6-1.2-1.2-1.2s-1.2,0.6-1.2,1.2C98.9,41.5,99.4,42.1,100.1,42.1z
			"/>
		<path class="st18" d="M132.2,22.3c0.7,0,1.2-0.6,1.2-1.2c0-0.7-0.6-1.2-1.2-1.2s-1.2,0.6-1.2,1.2C131,21.8,131.5,22.3,132.2,22.3z
			"/>
		<path class="st19" d="M169.7,30.2c0.7,0,1.2-0.6,1.2-1.2c0-0.7-0.6-1.2-1.2-1.2s-1.2,0.6-1.2,1.2C168.5,29.7,169,30.2,169.7,30.2z
			"/>
		<path class="st19" d="M191.4,61.8c0.7,0,1.2-0.6,1.2-1.2c0-0.7-0.6-1.2-1.2-1.2s-1.2,0.6-1.2,1.2
			C190.2,61.3,190.7,61.8,191.4,61.8z"/>
		<path class="st19" d="M185,99.8c0.7,0,1.2-0.6,1.2-1.2s-0.6-1.2-1.2-1.2c-0.7,0-1.2,0.6-1.2,1.2S184.3,99.8,185,99.8z"/>
		<path class="st19" d="M154.4,123.5c0.7,0,1.2-0.6,1.2-1.2c0-0.7-0.6-1.2-1.2-1.2c-0.7,0-1.2,0.6-1.2,1.2
			C153.2,123,153.7,123.5,154.4,123.5z"/>
		<path class="st19" d="M115.4,119.6c0.7,0,1.2-0.6,1.2-1.2c0-0.7-0.6-1.2-1.2-1.2s-1.2,0.6-1.2,1.2
			C114.2,119,114.7,119.6,115.4,119.6z"/>
		<path class="st19" d="M89.7,89c0.7,0,1.2-0.6,1.2-1.2c0-0.7-0.6-1.2-1.2-1.2c-0.7,0-1.2,0.6-1.2,1.2C88.5,88.4,89.1,89,89.7,89z"
			/>
		<path class="st19" d="M92.2,49.5c0.7,0,1.2-0.6,1.2-1.2c0-0.7-0.6-1.2-1.2-1.2c-0.7,0-1.2,0.6-1.2,1.2
			C91,48.9,91.5,49.5,92.2,49.5z"/>
		<path class="st19" d="M121.3,21.8c0.7,0,1.2-0.6,1.2-1.2c0-0.7-0.6-1.2-1.2-1.2c-0.7,0-1.2,0.6-1.2,1.2
			C120.1,21.3,120.6,21.8,121.3,21.8z"/>
		<path class="st20" d="M161.8,22.3c0.7,0,1.2-0.6,1.2-1.2c0-0.7-0.6-1.2-1.2-1.2s-1.2,0.6-1.2,1.2
			C160.6,21.8,161.1,22.3,161.8,22.3z"/>
		<path class="st20" d="M190.9,50.5c0.7,0,1.2-0.6,1.2-1.2c0-0.7-0.6-1.2-1.2-1.2c-0.7,0-1.2,0.6-1.2,1.2
			C189.7,49.9,190.2,50.5,190.9,50.5z"/>
		<path class="st20" d="M192.9,91.4c0.7,0,1.2-0.6,1.2-1.2c0-0.7-0.6-1.2-1.2-1.2c-0.7,0-1.2,0.6-1.2,1.2
			C191.7,90.9,192.2,91.4,192.9,91.4z"/>
		<path class="st20" d="M165.7,122.5c0.7,0,1.2-0.6,1.2-1.2c0-0.7-0.6-1.2-1.2-1.2s-1.2,0.6-1.2,1.2
			C164.5,122,165.1,122.5,165.7,122.5z"/>
		<path class="st20" d="M124.3,126.5c0.7,0,1.2-0.6,1.2-1.2c0-0.7-0.6-1.2-1.2-1.2c-0.7,0-1.2,0.6-1.2,1.2
			C123.1,125.9,123.6,126.5,124.3,126.5z"/>
		<path class="st20" d="M91.2,100.3c0.7,0,1.2-0.6,1.2-1.2c0-0.7-0.6-1.2-1.2-1.2c-0.7,0-1.2,0.6-1.2,1.2
			C90,99.8,90.5,100.3,91.2,100.3z"/>
		<path class="st20" d="M85.3,58.9c0.7,0,1.2-0.6,1.2-1.2c0-0.7-0.6-1.2-1.2-1.2s-1.2,0.6-1.2,1.2C84.1,58.3,84.6,58.9,85.3,58.9z"
			/>
		<path class="st21" d="M110,24.3c0.7,0,1.2-0.6,1.2-1.2c0-0.7-0.6-1.2-1.2-1.2c-0.7,0-1.2,0.6-1.2,1.2
			C108.7,23.8,109.3,24.3,110,24.3z"/>
		<path class="st21" d="M151.4,15.9c0.7,0,1.2-0.6,1.2-1.2c0-0.7-0.6-1.2-1.2-1.2c-0.7,0-1.2,0.6-1.2,1.2
			C150.2,15.4,150.8,15.9,151.4,15.9z"/>
		<path class="st21" d="M188,39.1c0.7,0,1.2-0.6,1.2-1.2c0-0.7-0.6-1.2-1.2-1.2s-1.2,0.6-1.2,1.2C186.7,38.6,187.3,39.1,188,39.1z"
			/>
		<path class="st21" d="M198.3,81.1c0.7,0,1.2-0.6,1.2-1.2c0-0.7-0.6-1.2-1.2-1.2c-0.7,0-1.2,0.6-1.2,1.2
			C197.1,80.5,197.6,81.1,198.3,81.1z"/>
		<path class="st21" d="M177.1,118.6c0.7,0,1.2-0.6,1.2-1.2s-0.6-1.2-1.2-1.2c-0.7,0-1.2,0.6-1.2,1.2S176.4,118.6,177.1,118.6z"/>
		<path class="st21" d="M135.1,131.4c0.7,0,1.2-0.6,1.2-1.2c0-0.7-0.6-1.2-1.2-1.2s-1.2,0.6-1.2,1.2
			C133.9,130.9,134.5,131.4,135.1,131.4z"/>
		<path class="st21" d="M95.7,111.7c0.7,0,1.2-0.6,1.2-1.2c0-0.7-0.6-1.2-1.2-1.2c-0.7,0-1.2,0.6-1.2,1.2
			C94.4,111.1,95,111.7,95.7,111.7z"/>
		<path class="st21" d="M80.9,70.2c0.7,0,1.2-0.6,1.2-1.2s-0.6-1.2-1.2-1.2s-1.2,0.6-1.2,1.2S80.2,70.2,80.9,70.2z"/>
		<path class="st22" d="M98.6,29.2c0.7,0,1.2-0.6,1.2-1.2c0-0.7-0.6-1.2-1.2-1.2c-0.7,0-1.2,0.6-1.2,1.2
			C97.4,28.7,97.9,29.2,98.6,29.2z"/>
		<path class="st22" d="M140.1,12c0.7,0,1.2-0.6,1.2-1.2c0-0.7-0.6-1.2-1.2-1.2c-0.7,0-1.2,0.6-1.2,1.2
			C138.8,11.4,139.4,12,140.1,12z"/>
		<path class="st22" d="M182,28.3c0.7,0,1.2-0.6,1.2-1.2s-0.6-1.2-1.2-1.2c-0.7,0-1.2,0.6-1.2,1.2S181.3,28.3,182,28.3z"/>
		<path class="st22" d="M201.8,68.7c0.7,0,1.2-0.6,1.2-1.2s-0.6-1.2-1.2-1.2c-0.7,0-1.2,0.6-1.2,1.2S201.1,68.7,201.8,68.7z"/>
		<path class="st22" d="M188,112.9c0.8,0,1.5-0.7,1.5-1.5c0-0.8-0.7-1.5-1.5-1.5c-0.8,0-1.5,0.7-1.5,1.5
			C186.5,112.2,187.1,112.9,188,112.9z"/>
		<path class="st22" d="M147.5,134.6c0.8,0,1.5-0.7,1.5-1.5c0-0.8-0.7-1.5-1.5-1.5c-0.8,0-1.5,0.7-1.5,1.5
			C146,133.9,146.7,134.6,147.5,134.6z"/>
		<path class="st22" d="M103.1,122.8c0.8,0,1.5-0.7,1.5-1.5c0-0.8-0.7-1.5-1.5-1.5s-1.5,0.7-1.5,1.5
			C101.6,122.1,102.3,122.8,103.1,122.8z"/>
		<path class="st23" d="M78.4,83.3c0.8,0,1.5-0.7,1.5-1.5c0-0.8-0.7-1.5-1.5-1.5c-0.8,0-1.5,0.7-1.5,1.5
			C76.9,82.6,77.6,83.3,78.4,83.3z"/>
		<path class="st23" d="M88.3,37.4c0.8,0,1.5-0.7,1.5-1.5c0-0.8-0.7-1.5-1.5-1.5c-0.8,0-1.5,0.7-1.5,1.5
			C86.8,36.7,87.4,37.4,88.3,37.4z"/>
		<path class="st23" d="M127.3,10.7c0.8,0,1.5-0.7,1.5-1.5c0-0.8-0.7-1.5-1.5-1.5c-0.8,0-1.5,0.7-1.5,1.5
			C125.8,10.1,126.4,10.7,127.3,10.7z"/>
		<path class="st23" d="M173.6,18.1c0.8,0,1.5-0.7,1.5-1.5c0-0.8-0.7-1.5-1.5-1.5c-0.8,0-1.5,0.7-1.5,1.5
			C172.2,17.5,172.8,18.1,173.6,18.1z"/>
		<path class="st23" d="M202.8,56.1c0.8,0,1.5-0.7,1.5-1.5c0-0.8-0.7-1.5-1.5-1.5c-0.8,0-1.5,0.7-1.5,1.5
			C201.3,55.5,201.9,56.1,202.8,56.1z"/>
		<path class="st23" d="M197.3,103.5c0.8,0,1.5-0.7,1.5-1.5c0-0.8-0.7-1.5-1.5-1.5c-0.8,0-1.5,0.7-1.5,1.5
			C195.8,102.9,196.5,103.5,197.3,103.5z"/>
		<path class="st23" d="M160.8,134.6c0.8,0,1.5-0.7,1.5-1.5c0-0.8-0.7-1.5-1.5-1.5c-0.8,0-1.5,0.7-1.5,1.5
			C159.3,133.9,160,134.6,160.8,134.6z"/>
		<path class="st23" d="M112.4,132.1c0.8,0,1.5-0.7,1.5-1.5c0-0.8-0.7-1.5-1.5-1.5s-1.5,0.7-1.5,1.5
			C111,131.5,111.6,132.1,112.4,132.1z"/>
		<path class="st24" d="M78.9,96.6c0.8,0,1.5-0.7,1.5-1.5c0-0.8-0.7-1.5-1.5-1.5c-0.8,0-1.5,0.7-1.5,1.5
			C77.4,95.9,78.1,96.6,78.9,96.6z"/>
		<path class="st24" d="M79.4,47.3c0.8,0,1.5-0.7,1.5-1.5c0-0.8-0.7-1.5-1.5-1.5c-0.8,0-1.5,0.7-1.5,1.5
			C77.9,46.6,78.6,47.3,79.4,47.3z"/>
		<path class="st24" d="M113.4,12.2c0.8,0,1.5-0.7,1.5-1.5c0-0.8-0.7-1.5-1.5-1.5c-0.8,0-1.5,0.7-1.5,1.5
			C112,11.6,112.6,12.2,113.4,12.2z"/>
		<path class="st24" d="M163.3,9.8c0.8,0,1.5-0.7,1.5-1.5c0-0.8-0.7-1.5-1.5-1.5c-0.8,0-1.5,0.7-1.5,1.5
			C161.8,9.1,162.5,9.8,163.3,9.8z"/>
		<path class="st24" d="M200.8,42.8c0.8,0,1.5-0.7,1.5-1.5c0-0.8-0.7-1.5-1.5-1.5c-0.8,0-1.5,0.7-1.5,1.5
			C199.3,42.2,200,42.8,200.8,42.8z"/>
		<path class="st24" d="M205.2,92.7c0.8,0,1.5-0.7,1.5-1.5c0-0.8-0.7-1.5-1.5-1.5c-0.8,0-1.5,0.7-1.5,1.5
			C203.7,92,204.4,92.7,205.2,92.7z"/>
		<path class="st24" d="M174.1,132.1c0.8,0,1.5-0.7,1.5-1.5c0-0.8-0.7-1.5-1.5-1.5c-0.8,0-1.5,0.7-1.5,1.5
			C172.7,131.5,173.3,132.1,174.1,132.1z"/>
		<path class="st25" d="M124.3,139.5c0.8,0,1.5-0.7,1.5-1.5c0-0.8-0.7-1.5-1.5-1.5c-0.8,0-1.5,0.7-1.5,1.5
			C122.8,138.9,123.5,139.5,124.3,139.5z"/>
		<path class="st25" d="M82.3,109.9c0.8,0,1.5-0.7,1.5-1.5c0-0.8-0.7-1.5-1.5-1.5c-0.8,0-1.5,0.7-1.5,1.5
			C80.9,109.3,81.5,109.9,82.3,109.9z"/>
		<path class="st25" d="M72.5,59.6c0.8,0,1.5-0.7,1.5-1.5c0-0.8-0.7-1.5-1.5-1.5c-0.8,0-1.5,0.7-1.5,1.5
			C71,58.9,71.7,59.6,72.5,59.6z"/>
		<path class="st25" d="M100.1,16.2c0.8,0,1.5-0.7,1.5-1.5c0-0.8-0.7-1.5-1.5-1.5s-1.5,0.7-1.5,1.5C98.6,15.5,99.3,16.2,100.1,16.2z
			"/>
		<path class="st25" d="M150.4,3.8c0.8,0,1.5-0.7,1.5-1.5c0-0.8-0.7-1.5-1.5-1.5c-0.8,0-1.5,0.7-1.5,1.5
			C149,3.2,149.6,3.8,150.4,3.8z"/>
		<path class="st25" d="M195.8,29c0.8,0,1.5-0.7,1.5-1.5c0-0.8-0.7-1.5-1.5-1.5c-0.8,0-1.5,0.7-1.5,1.5C194.4,28.3,195,29,195.8,29z
			"/>
		<path class="st25" d="M211.1,79.3c0.8,0,1.5-0.7,1.5-1.5c0-0.8-0.7-1.5-1.5-1.5c-0.8,0-1.5,0.7-1.5,1.5
			C209.7,78.7,210.3,79.3,211.1,79.3z"/>
		<path class="st25" d="M187.5,126.2c0.8,0,1.5-0.7,1.5-1.5s-0.7-1.5-1.5-1.5c-0.8,0-1.5,0.7-1.5,1.5S186.6,126.2,187.5,126.2z"/>
		<path class="st26" d="M137.6,144.5c0.8,0,1.5-0.7,1.5-1.5c0-0.8-0.7-1.5-1.5-1.5c-0.8,0-1.5,0.7-1.5,1.5
			C136.1,143.8,136.8,144.5,137.6,144.5z"/>
		<path class="st26" d="M89.3,123.3c0.8,0,1.5-0.7,1.5-1.5c0-0.8-0.7-1.5-1.5-1.5c-0.8,0-1.5,0.7-1.5,1.5
			C87.8,122.6,88.4,123.3,89.3,123.3z"/>
		<path class="st26" d="M68.5,73.9c0.8,0,1.5-0.7,1.5-1.5c0-0.8-0.7-1.5-1.5-1.5S67,71.6,67,72.4C67,73.2,67.7,73.9,68.5,73.9z"/>
		<path class="st26" d="M87.3,23.6c0.8,0,1.5-0.7,1.5-1.5c0-0.8-0.7-1.5-1.5-1.5c-0.8,0-1.5,0.7-1.5,1.5
			C85.8,22.9,86.5,23.6,87.3,23.6z"/>
		<path class="st26" d="M136.1-0.1c0.8,0,1.5-0.7,1.5-1.5c0-0.8-0.7-1.5-1.5-1.5c-0.8,0-1.5,0.7-1.5,1.5
			C134.7-0.8,135.3-0.1,136.1-0.1z"/>
		<path class="st26" d="M187.5,16.7c0.8,0,1.5-0.7,1.5-1.5c0-0.8-0.7-1.5-1.5-1.5c-0.8,0-1.5,0.7-1.5,1.5
			C186,16,186.6,16.7,187.5,16.7z"/>
		<path class="st26" d="M213.6,64.5c0.8,0,1.5-0.7,1.5-1.5c0-0.8-0.7-1.5-1.5-1.5c-0.8,0-1.5,0.7-1.5,1.5
			C212.1,63.9,212.8,64.5,213.6,64.5z"/>
		<path class="st27" d="M199.8,117.3c0.8,0,1.5-0.7,1.5-1.5c0-0.8-0.7-1.5-1.5-1.5c-0.8,0-1.5,0.7-1.5,1.5
			C198.3,116.7,199,117.3,199.8,117.3z"/>
		<path class="st27" d="M152.9,146.5c0.8,0,1.5-0.7,1.5-1.5c0-0.8-0.7-1.5-1.5-1.5c-0.8,0-1.5,0.7-1.5,1.5
			C151.4,145.8,152.1,146.5,152.9,146.5z"/>
		<path class="st27" d="M98.6,135.4c1,0,1.7-0.8,1.7-1.7c0-1-0.8-1.7-1.7-1.7c-1,0-1.7,0.8-1.7,1.7
			C96.9,134.6,97.7,135.4,98.6,135.4z"/>
		<path class="st27" d="M67,89.5c1,0,1.7-0.8,1.7-1.7c0-1-0.8-1.7-1.7-1.7s-1.7,0.8-1.7,1.7C65.3,88.7,66.1,89.5,67,89.5z"/>
		<path class="st27" d="M75.9,34.2c1,0,1.7-0.8,1.7-1.7c0-1-0.8-1.7-1.7-1.7s-1.7,0.8-1.7,1.7C74.2,33.4,75,34.2,75.9,34.2z"/>
		<path class="st27" d="M120.8-0.4c1,0,1.7-0.8,1.7-1.7c0-1-0.8-1.7-1.7-1.7c-1,0-1.7,0.8-1.7,1.7C119.1-1.1,119.9-0.4,120.8-0.4z"
			/>
		<path class="st27" d="M176.6,6.1c1,0,1.7-0.8,1.7-1.7c0-1-0.8-1.7-1.7-1.7c-1,0-1.7,0.8-1.7,1.7C174.9,5.3,175.6,6.1,176.6,6.1z"
			/>
		<path class="st27" d="M213.6,49.5c1,0,1.7-0.8,1.7-1.7c0-1-0.8-1.7-1.7-1.7c-1,0-1.7,0.8-1.7,1.7
			C211.9,48.7,212.7,49.5,213.6,49.5z"/>
		<path class="st28" d="M210.2,106.2c1,0,1.7-0.8,1.7-1.7c0-1-0.8-1.7-1.7-1.7c-1,0-1.7,0.8-1.7,1.7
			C208.4,105.5,209.2,106.2,210.2,106.2z"/>
		<path class="st28" d="M168.2,145.7c1,0,1.7-0.8,1.7-1.7c0-1-0.8-1.7-1.7-1.7s-1.7,0.8-1.7,1.7
			C166.5,144.9,167.3,145.7,168.2,145.7z"/>
		<path class="st28" d="M111,145.2c1,0,1.7-0.8,1.7-1.7c0-1-0.8-1.7-1.7-1.7c-1,0-1.7,0.8-1.7,1.7C109.2,144.4,110,145.2,111,145.2z
			"/>
		<path class="st28" d="M69,104.8c1,0,1.7-0.8,1.7-1.7c0-1-0.8-1.7-1.7-1.7s-1.7,0.8-1.7,1.7C67.3,104,68.1,104.8,69,104.8z"/>
		<path class="st28" d="M66.6,47c1,0,1.7-0.8,1.7-1.7c0-1-0.8-1.7-1.7-1.7c-1,0-1.7,0.8-1.7,1.7C64.8,46.2,65.6,47,66.6,47z"/>
		<path class="st28" d="M105,2.6c1,0,1.7-0.8,1.7-1.7c0-1-0.8-1.7-1.7-1.7c-1,0-1.7,0.8-1.7,1.7C103.3,1.8,104.1,2.6,105,2.6z"/>
		<path class="st28" d="M163.3-2.8c1,0,1.7-0.8,1.7-1.7c0-1-0.8-1.7-1.7-1.7s-1.7,0.8-1.7,1.7C161.6-3.6,162.3-2.8,163.3-2.8z"/>
		<path class="st29" d="M209.7,33.7c1,0,1.7-0.8,1.7-1.7s-0.8-1.7-1.7-1.7c-1,0-1.7,0.8-1.7,1.7S208.7,33.7,209.7,33.7z"/>
		<path class="st29" d="M218.6,92.4c1,0,1.7-0.8,1.7-1.7s-0.8-1.7-1.7-1.7c-1,0-1.7,0.8-1.7,1.7S217.6,92.4,218.6,92.4z"/>
		<path class="st29" d="M184,140.8c1,0,1.7-0.8,1.7-1.7c0-1-0.8-1.7-1.7-1.7c-1,0-1.7,0.8-1.7,1.7C182.3,140,183.1,140.8,184,140.8z
			"/>
		<path class="st29" d="M125.3,152.6c1,0,1.7-0.8,1.7-1.7c0-1-0.8-1.7-1.7-1.7c-1,0-1.7,0.8-1.7,1.7
			C123.6,151.8,124.3,152.6,125.3,152.6z"/>
		<path class="st29" d="M74.4,120.5c1,0,1.7-0.8,1.7-1.7c0-1-0.8-1.7-1.7-1.7c-1,0-1.7,0.8-1.7,1.7
			C72.7,119.8,73.5,120.5,74.4,120.5z"/>
		<path class="st29" d="M59.6,61.8c1,0,1.7-0.8,1.7-1.7c0-1-0.8-1.7-1.7-1.7c-1,0-1.7,0.8-1.7,1.7C57.9,61,58.7,61.8,59.6,61.8z"/>
		<path class="st29" d="M89.7,9c1,0,1.7-0.8,1.7-1.7s-0.8-1.7-1.7-1.7c-1,0-1.7,0.8-1.7,1.7S88.8,9,89.7,9z"/>
		<path class="st30" d="M148-8.8c1,0,1.7-0.8,1.7-1.7c0-1-0.8-1.7-1.7-1.7c-1,0-1.7,0.8-1.7,1.7C146.3-9.5,147-8.8,148-8.8z"/>
		<path class="st30" d="M202.8,18.4c1,0,1.7-0.8,1.7-1.7c0-1-0.8-1.7-1.7-1.7c-1,0-1.7,0.8-1.7,1.7C201,17.6,201.8,18.4,202.8,18.4z
			"/>
		<path class="st30" d="M223.5,76.1c1,0,1.7-0.8,1.7-1.7c0-1-0.8-1.7-1.7-1.7s-1.7,0.8-1.7,1.7C221.8,75.4,222.5,76.1,223.5,76.1z"
			/>
		<path class="st30" d="M198.8,132.9c1,0,1.7-0.8,1.7-1.7c0-1-0.8-1.7-1.7-1.7c-1,0-1.7,0.8-1.7,1.7
			C197.1,132.1,197.9,132.9,198.8,132.9z"/>
		<path class="st30" d="M141.6,157.1c1,0,1.7-0.8,1.7-1.7c0-1-0.8-1.7-1.7-1.7c-1,0-1.7,0.8-1.7,1.7
			C139.8,156.3,140.6,157.1,141.6,157.1z"/>
		<path class="st30" d="M83.3,134.9c1,0,1.7-0.8,1.7-1.7c0-1-0.8-1.7-1.7-1.7s-1.7,0.8-1.7,1.7C81.6,134.1,82.4,134.9,83.3,134.9z"
			/>
		<path class="st30" d="M56.2,78.6c1,0,1.7-0.8,1.7-1.7c0-1-0.8-1.7-1.7-1.7s-1.7,0.8-1.7,1.7C54.5,77.8,55.2,78.6,56.2,78.6z"/>
		<path class="st30" d="M75.4,18.9c1,0,1.7-0.8,1.7-1.7c0-1-0.8-1.7-1.7-1.7c-1,0-1.7,0.8-1.7,1.7C73.7,18.1,74.5,18.9,75.4,18.9z"
			/>
		<path class="st31" d="M130.7-11.7c1,0,1.7-0.8,1.7-1.7c0-1-0.8-1.7-1.7-1.7s-1.7,0.8-1.7,1.7C129-12.5,129.8-11.7,130.7-11.7z"/>
		<path class="st31" d="M191.9,4.6c1,0,1.7-0.8,1.7-1.7c0-1-0.8-1.7-1.7-1.7s-1.7,0.8-1.7,1.7C190.2,3.8,190.9,4.6,191.9,4.6z"/>
		<path class="st31" d="M225.5,58.9c1,0,1.7-0.8,1.7-1.7c0-1-0.8-1.7-1.7-1.7c-1,0-1.7,0.8-1.7,1.7
			C223.7,58.1,224.5,58.9,225.5,58.9z"/>
		<path class="st31" d="M212.1,121.5c1,0,1.7-0.8,1.7-1.7s-0.8-1.7-1.7-1.7c-1,0-1.7,0.8-1.7,1.7S211.2,121.5,212.1,121.5z"/>
		<path class="st31" d="M159.3,158.1c1,0,1.7-0.8,1.7-1.7s-0.8-1.7-1.7-1.7s-1.7,0.8-1.7,1.7S158.4,158.1,159.3,158.1z"/>
		<path class="st31" d="M95.7,147.7c1,0,1.7-0.8,1.7-1.7c0-1-0.8-1.7-1.7-1.7c-1,0-1.7,0.8-1.7,1.7
			C93.9,146.9,94.7,147.7,95.7,147.7z"/>
		<path class="st31" d="M56.2,96.6c1.1,0,2-0.9,2-2c0-1.1-0.9-2-2-2c-1.1,0-2,0.9-2,2C54.2,95.7,55.1,96.6,56.2,96.6z"/>
		<path class="st32" d="M63.1,32c1.1,0,2-0.9,2-2c0-1.1-0.9-2-2-2s-2,0.9-2,2C61.1,31.1,62,32,63.1,32z"/>
		<path class="st32" d="M112.9-10.5c1.1,0,2-0.9,2-2s-0.9-2-2-2c-1.1,0-2,0.9-2,2S111.9-10.5,112.9-10.5z"/>
		<path class="st32" d="M178.6-7c1.1,0,2-0.9,2-2s-0.9-2-2-2c-1.1,0-2,0.9-2,2S177.5-7,178.6-7z"/>
		<path class="st32" d="M223.5,41.3c1.1,0,2-0.9,2-2c0-1.1-0.9-2-2-2s-2,0.9-2,2C221.5,40.5,222.4,41.3,223.5,41.3z"/>
		<path class="st32" d="M223.5,107.5c1.1,0,2-0.9,2-2c0-1.1-0.9-2-2-2s-2,0.9-2,2C221.5,106.6,222.4,107.5,223.5,107.5z"/>
		<path class="st32" d="M177.1,155.3c1.1,0,2-0.9,2-2c0-1.1-0.9-2-2-2c-1.1,0-2,0.9-2,2C175.1,154.5,176,155.3,177.1,155.3z"/>
		<path class="st32" d="M110.5,158.3c1.1,0,2-0.9,2-2s-0.9-2-2-2c-1.1,0-2,0.9-2,2S109.4,158.3,110.5,158.3z"/>
		<path class="st32" d="M59.6,114.4c1.1,0,2-0.9,2-2c0-1.1-0.9-2-2-2c-1.1,0-2,0.9-2,2C57.7,113.5,58.6,114.4,59.6,114.4z"/>
		<path class="st33" d="M53.2,47.3c1.1,0,2-0.9,2-2c0-1.1-0.9-2-2-2s-2,0.9-2,2C51.3,46.4,52.1,47.3,53.2,47.3z"/>
		<path class="st33" d="M95.2-6c1.1,0,2-0.9,2-2c0-1.1-0.9-2-2-2s-2,0.9-2,2C93.2-6.9,94.1-6,95.2-6z"/>
		<path class="st33" d="M162.3-15.9c1.1,0,2-0.9,2-2c0-1.1-0.9-2-2-2s-2,0.9-2,2C160.3-16.8,161.2-15.9,162.3-15.9z"/>
		<path class="st33" d="M218.1,23.6c1.1,0,2-0.9,2-2c0-1.1-0.9-2-2-2c-1.1,0-2,0.9-2,2C216.1,22.7,217,23.6,218.1,23.6z"/>
		<path class="st33" d="M231.4,90.7c1.1,0,2-0.9,2-2c0-1.1-0.9-2-2-2c-1.1,0-2,0.9-2,2C229.4,89.8,230.3,90.7,231.4,90.7z"/>
		<path class="st33" d="M194.9,148.9c1.1,0,2-0.9,2-2c0-1.1-0.9-2-2-2s-2,0.9-2,2C192.9,148,193.8,148.9,194.9,148.9z"/>
		<path class="st33" d="M127.7,165.7c1.1,0,2-0.9,2-2c0-1.1-0.9-2-2-2c-1.1,0-2,0.9-2,2C125.8,164.8,126.7,165.7,127.7,165.7z"/>
		<path class="st34" d="M67.5,131.6c1.1,0,2-0.9,2-2c0-1.1-0.9-2-2-2c-1.1,0-2,0.9-2,2C65.6,130.8,66.4,131.6,67.5,131.6z"/>
		<path class="st34" d="M46.8,65.5c1.1,0,2-0.9,2-2c0-1.1-0.9-2-2-2s-2,0.9-2,2C44.8,64.6,45.7,65.5,46.8,65.5z"/>
		<path class="st34" d="M77.9,2.8c1.1,0,2-0.9,2-2s-0.9-2-2-2c-1.1,0-2,0.9-2,2S76.8,2.8,77.9,2.8z"/>
		<path class="st34" d="M144-21.3c1.1,0,2-0.9,2-2c0-1.1-0.9-2-2-2c-1.1,0-2,0.9-2,2C142.1-22.2,142.9-21.3,144-21.3z"/>
		<path class="st34" d="M208.7,6.8c1.1,0,2-0.9,2-2s-0.9-2-2-2c-1.1,0-2,0.9-2,2S207.6,6.8,208.7,6.8z"/>
		<path class="st34" d="M235.8,71.9c1.1,0,2-0.9,2-2c0-1.1-0.9-2-2-2c-1.1,0-2,0.9-2,2C233.8,71.1,234.7,71.9,235.8,71.9z"/>
		<path class="st34" d="M211.1,138.6c1.1,0,2-0.9,2-2c0-1.1-0.9-2-2-2c-1.1,0-2,0.9-2,2C209.2,137.7,210.1,138.6,211.1,138.6z"/>
		<path class="st34" d="M147,169.6c1.1,0,2-0.9,2-2s-0.9-2-2-2c-1.1,0-2,0.9-2,2S145.9,169.6,147,169.6z"/>
		<path class="st35" d="M78.9,147.9c1.1,0,2-0.9,2-2c0-1.1-0.9-2-2-2c-1.1,0-2,0.9-2,2C76.9,147.1,77.8,147.9,78.9,147.9z"/>
		<path class="st35" d="M44.3,84.8c1.1,0,2-0.9,2-2c0-1.1-0.9-2-2-2s-2,0.9-2,2C42.4,83.9,43.3,84.8,44.3,84.8z"/>
		<path class="st35" d="M62.6,15.2c1.1,0,2-0.9,2-2s-0.9-2-2-2c-1.1,0-2,0.9-2,2S61.5,15.2,62.6,15.2z"/>
		<path class="st35" d="M124.3-22.8c1.1,0,2-0.9,2-2c0-1.1-0.9-2-2-2c-1.1,0-2,0.9-2,2C122.3-23.7,123.2-22.8,124.3-22.8z"/>
		<path class="st35" d="M195.4-8c1.1,0,2-0.9,2-2s-0.9-2-2-2s-2,0.9-2,2S194.3-8,195.4-8z"/>
		<path class="st35" d="M236.8,52.2c1.1,0,2-0.9,2-2c0-1.1-0.9-2-2-2s-2,0.9-2,2C234.8,51.3,235.7,52.2,236.8,52.2z"/>
		<path class="st35" d="M225.5,124.2c1.1,0,2-0.9,2-2c0-1.1-0.9-2-2-2c-1.1,0-2,0.9-2,2C223.5,123.4,224.4,124.2,225.5,124.2z"/>
		<path class="st36" d="M167.2,169.2c1.1,0,2-0.9,2-2c0-1.1-0.9-2-2-2c-1.1,0-2,0.9-2,2C165.3,168.3,166.1,169.2,167.2,169.2z"/>
		<path class="st36" d="M93.7,161.3c1.1,0,2-0.9,2-2c0-1.1-0.9-2-2-2c-1.1,0-2,0.9-2,2C91.7,160.4,92.6,161.3,93.7,161.3z"/>
		<path class="st36" d="M45.8,105c1.1,0,2-0.9,2-2c0-1.1-0.9-2-2-2s-2,0.9-2,2C43.9,104.1,44.7,105,45.8,105z"/>
		<path class="st36" d="M49.8,30.7c1.2,0,2.2-1,2.2-2.2c0-1.2-1-2.2-2.2-2.2c-1.2,0-2.2,1-2.2,2.2C47.6,29.7,48.5,30.7,49.8,30.7z"
			/>
		<path class="st36" d="M104.1-20.1c1.2,0,2.2-1,2.2-2.2c0-1.2-1-2.2-2.2-2.2c-1.2,0-2.2,1-2.2,2.2
			C101.8-21.1,102.8-20.1,104.1-20.1z"/>
		<path class="st36" d="M179.1-20.1c1.2,0,2.2-1,2.2-2.2c0-1.2-1-2.2-2.2-2.2c-1.2,0-2.2,1-2.2,2.2
			C176.8-21.1,177.8-20.1,179.1-20.1z"/>
		<path class="st36" d="M233.4,32.2c1.2,0,2.2-1,2.2-2.2s-1-2.2-2.2-2.2c-1.2,0-2.2,1-2.2,2.2S232.1,32.2,233.4,32.2z"/>
		<path class="st36" d="M236.8,107.2c1.2,0,2.2-1,2.2-2.2c0-1.2-1-2.2-2.2-2.2s-2.2,1-2.2,2.2C234.6,106.2,235.6,107.2,236.8,107.2z
			"/>
		<path class="st37" d="M187,164.5c1.2,0,2.2-1,2.2-2.2c0-1.2-1-2.2-2.2-2.2s-2.2,1-2.2,2.2C184.7,163.5,185.7,164.5,187,164.5z"/>
		<path class="st37" d="M111.5,171.9c1.2,0,2.2-1,2.2-2.2c0-1.2-1-2.2-2.2-2.2c-1.2,0-2.2,1-2.2,2.2
			C109.2,170.9,110.2,171.9,111.5,171.9z"/>
		<path class="st37" d="M51.3,125c1.2,0,2.2-1,2.2-2.2c0-1.2-1-2.2-2.2-2.2c-1.2,0-2.2,1-2.2,2.2C49,124,50,125,51.3,125z"/>
		<path class="st37" d="M39.9,49.5c1.2,0,2.2-1,2.2-2.2s-1-2.2-2.2-2.2c-1.2,0-2.2,1-2.2,2.2S38.7,49.5,39.9,49.5z"/>
		<path class="st37" d="M84.3-13.2c1.2,0,2.2-1,2.2-2.2c0-1.2-1-2.2-2.2-2.2c-1.2,0-2.2,1-2.2,2.2C82.1-14.2,83.1-13.2,84.3-13.2z"
			/>
		<path class="st37" d="M159.8-28.5c1.2,0,2.2-1,2.2-2.2c0-1.2-1-2.2-2.2-2.2s-2.2,1-2.2,2.2C157.6-29.5,158.6-28.5,159.8-28.5z"/>
		<path class="st37" d="M225.5,12.5c1.2,0,2.2-1,2.2-2.2c0-1.2-1-2.2-2.2-2.2s-2.2,1-2.2,2.2C223.2,11.5,224.2,12.5,225.5,12.5z"/>
		<path class="st38" d="M244.7,88c1.2,0,2.2-1,2.2-2.2c0-1.2-1-2.2-2.2-2.2c-1.2,0-2.2,1-2.2,2.2C242.5,87,243.5,88,244.7,88z"/>
		<path class="st38" d="M206.2,155.6c1.2,0,2.2-1,2.2-2.2c0-1.2-1-2.2-2.2-2.2c-1.2,0-2.2,1-2.2,2.2
			C204,154.6,205,155.6,206.2,155.6z"/>
		<path class="st38" d="M131.7,178.8c1.2,0,2.2-1,2.2-2.2s-1-2.2-2.2-2.2s-2.2,1-2.2,2.2S130.5,178.8,131.7,178.8z"/>
		<path class="st38" d="M61.1,144.2c1.2,0,2.2-1,2.2-2.2s-1-2.2-2.2-2.2c-1.2,0-2.2,1-2.2,2.2S59.9,144.2,61.1,144.2z"/>
		<path class="st38" d="M34.5,70.2c1.2,0,2.2-1,2.2-2.2c0-1.2-1-2.2-2.2-2.2c-1.2,0-2.2,1-2.2,2.2C32.3,69.2,33.2,70.2,34.5,70.2z"
			/>
		<path class="st38" d="M65.6-2.3c1.2,0,2.2-1,2.2-2.2c0-1.2-1-2.2-2.2-2.2s-2.2,1-2.2,2.2C63.3-3.3,64.3-2.3,65.6-2.3z"/>
		<path class="st38" d="M138.6-33.4c1.2,0,2.2-1,2.2-2.2c0-1.2-1-2.2-2.2-2.2c-1.2,0-2.2,1-2.2,2.2
			C136.4-34.4,137.4-33.4,138.6-33.4z"/>
		<path class="st38" d="M213.1-5.3c1.2,0,2.2-1,2.2-2.2c0-1.2-1-2.2-2.2-2.2s-2.2,1-2.2,2.2C210.9-6.3,211.9-5.3,213.1-5.3z"/>
		<path class="st39" d="M248.2,66.3c1.2,0,2.2-1,2.2-2.2c0-1.2-1-2.2-2.2-2.2c-1.2,0-2.2,1-2.2,2.2
			C245.9,65.3,246.9,66.3,248.2,66.3z"/>
		<path class="st39" d="M224,142.8c1.2,0,2.2-1,2.2-2.2c0-1.2-1-2.2-2.2-2.2s-2.2,1-2.2,2.2C221.8,141.8,222.8,142.8,224,142.8z"/>
		<path class="st39" d="M153.4,181.7c1.2,0,2.2-1,2.2-2.2c0-1.2-1-2.2-2.2-2.2c-1.2,0-2.2,1-2.2,2.2
			C151.2,180.7,152.2,181.7,153.4,181.7z"/>
		<path class="st39" d="M75.4,161c1.2,0,2.2-1,2.2-2.2s-1-2.2-2.2-2.2s-2.2,1-2.2,2.2S74.2,161,75.4,161z"/>
		<path class="st39" d="M33,91.9c1.2,0,2.2-1,2.2-2.2c0-1.2-1-2.2-2.2-2.2c-1.2,0-2.2,1-2.2,2.2C30.8,90.9,31.8,91.9,33,91.9z"/>
		<path class="st39" d="M49.3,12.5c1.2,0,2.2-1,2.2-2.2c0-1.2-1-2.2-2.2-2.2c-1.2,0-2.2,1-2.2,2.2C47.1,11.5,48.1,12.5,49.3,12.5z"
			/>
		<path class="st39" d="M116.4-33.9c1.2,0,2.2-1,2.2-2.2s-1-2.2-2.2-2.2c-1.2,0-2.2,1-2.2,2.2S115.2-33.9,116.4-33.9z"/>
		<path class="st40" d="M197.3-21.1c1.2,0,2.2-1,2.2-2.2c0-1.2-1-2.2-2.2-2.2s-2.2,1-2.2,2.2C195.1-22.1,196.1-21.1,197.3-21.1z"/>
		<path class="st40" d="M247.2,44.1c1.2,0,2.2-1,2.2-2.2c0-1.2-1-2.2-2.2-2.2c-1.2,0-2.2,1-2.2,2.2C245,43.1,245.9,44.1,247.2,44.1z
			"/>
		<path class="st40" d="M238.8,126c1.2,0,2.2-1,2.2-2.2c0-1.2-1-2.2-2.2-2.2s-2.2,1-2.2,2.2C236.6,125,237.6,126,238.8,126z"/>
		<path class="st40" d="M176.1,179.8c1.2,0,2.2-1,2.2-2.2c0-1.2-1-2.2-2.2-2.2s-2.2,1-2.2,2.2C173.9,178.8,174.9,179.8,176.1,179.8z
			"/>
		<path class="st40" d="M93.2,175.3c1.2,0,2.2-1,2.2-2.2c0-1.2-1-2.2-2.2-2.2s-2.2,1-2.2,2.2C91,174.3,92,175.3,93.2,175.3z"/>
		<path class="st40" d="M36,114.6c1.2,0,2.2-1,2.2-2.2s-1-2.2-2.2-2.2c-1.2,0-2.2,1-2.2,2.2S34.7,114.6,36,114.6z"/>
		<path class="st40" d="M36,31.2c1.2,0,2.2-1,2.2-2.2c0-1.2-1-2.2-2.2-2.2c-1.2,0-2.2,1-2.2,2.2C33.7,30.2,34.7,31.2,36,31.2z"/>
		<path class="st40" d="M94.2-29.5c1.2,0,2.2-1,2.2-2.2c0-1.2-1-2.2-2.2-2.2c-1.2,0-2.2,1-2.2,2.2C92-30.5,93-29.5,94.2-29.5z"/>
		<path class="st41" d="M178.1-33.2c1.4,0,2.5-1.1,2.5-2.5s-1.1-2.5-2.5-2.5s-2.5,1.1-2.5,2.5S176.7-33.2,178.1-33.2z"/>
		<path class="st41" d="M241.7,22.1c1.4,0,2.5-1.1,2.5-2.5s-1.1-2.5-2.5-2.5c-1.4,0-2.5,1.1-2.5,2.5S240.4,22.1,241.7,22.1z"/>
		<path class="st41" d="M250.1,106c1.4,0,2.5-1.1,2.5-2.5c0-1.4-1.1-2.5-2.5-2.5c-1.4,0-2.5,1.1-2.5,2.5
			C247.7,104.9,248.8,106,250.1,106z"/>
		<path class="st41" d="M197.8,173.1c1.4,0,2.5-1.1,2.5-2.5s-1.1-2.5-2.5-2.5s-2.5,1.1-2.5,2.5S196.5,173.1,197.8,173.1z"/>
		<path class="st41" d="M113.9,185.9c1.4,0,2.5-1.1,2.5-2.5c0-1.4-1.1-2.5-2.5-2.5c-1.4,0-2.5,1.1-2.5,2.5
			C111.5,184.8,112.6,185.9,113.9,185.9z"/>
		<path class="st41" d="M43.9,136.6c1.4,0,2.5-1.1,2.5-2.5c0-1.4-1.1-2.5-2.5-2.5s-2.5,1.1-2.5,2.5
			C41.4,135.5,42.5,136.6,43.9,136.6z"/>
		<path class="st41" d="M26.6,52.7c1.4,0,2.5-1.1,2.5-2.5c0-1.4-1.1-2.5-2.5-2.5c-1.4,0-2.5,1.1-2.5,2.5
			C24.1,51.6,25.2,52.7,26.6,52.7z"/>
		<path class="st42" d="M72.5-20.3c1.4,0,2.5-1.1,2.5-2.5c0-1.4-1.1-2.5-2.5-2.5S70-24.2,70-22.8C70-21.5,71.1-20.3,72.5-20.3z"/>
		<path class="st42" d="M155.9-41.6c1.4,0,2.5-1.1,2.5-2.5c0-1.4-1.1-2.5-2.5-2.5s-2.5,1.1-2.5,2.5
			C153.4-42.7,154.5-41.6,155.9-41.6z"/>
		<path class="st42" d="M231.4,0.4c1.4,0,2.5-1.1,2.5-2.5c0-1.4-1.1-2.5-2.5-2.5c-1.4,0-2.5,1.1-2.5,2.5
			C228.9-0.7,230,0.4,231.4,0.4z"/>
		<path class="st42" d="M257.5,83.3c1.4,0,2.5-1.1,2.5-2.5s-1.1-2.5-2.5-2.5s-2.5,1.1-2.5,2.5S256.2,83.3,257.5,83.3z"/>
		<path class="st42" d="M219,161.8c1.4,0,2.5-1.1,2.5-2.5c0-1.4-1.1-2.5-2.5-2.5s-2.5,1.1-2.5,2.5
			C216.6,160.6,217.7,161.8,219,161.8z"/>
		<path class="st42" d="M137.1,191.9c1.4,0,2.5-1.1,2.5-2.5c0-1.4-1.1-2.5-2.5-2.5s-2.5,1.1-2.5,2.5
			C134.7,190.8,135.8,191.9,137.1,191.9z"/>
		<path class="st42" d="M56.2,157.3c1.4,0,2.5-1.1,2.5-2.5c0-1.4-1.1-2.5-2.5-2.5s-2.5,1.1-2.5,2.5
			C53.7,156.2,54.8,157.3,56.2,157.3z"/>
		<path class="st42" d="M21.6,76.4c1.4,0,2.5-1.1,2.5-2.5c0-1.4-1.1-2.5-2.5-2.5c-1.4,0-2.5,1.1-2.5,2.5
			C19.2,75.3,20.3,76.4,21.6,76.4z"/>
		<path class="st43" d="M52.7-6.5c1.4,0,2.5-1.1,2.5-2.5s-1.1-2.5-2.5-2.5c-1.4,0-2.5,1.1-2.5,2.5S51.4-6.5,52.7-6.5z"/>
		<path class="st43" d="M132.2-45.5c1.4,0,2.5-1.1,2.5-2.5c0-1.4-1.1-2.5-2.5-2.5s-2.5,1.1-2.5,2.5
			C129.7-46.6,130.8-45.5,132.2-45.5z"/>
		<path class="st43" d="M217.1-18.4c1.4,0,2.5-1.1,2.5-2.5s-1.1-2.5-2.5-2.5c-1.4,0-2.5,1.1-2.5,2.5S215.7-18.4,217.1-18.4z"/>
		<path class="st43" d="M260,59.6c1.4,0,2.5-1.1,2.5-2.5c0-1.4-1.1-2.5-2.5-2.5s-2.5,1.1-2.5,2.5C257.5,58.5,258.6,59.6,260,59.6z"
			/>
		<path class="st43" d="M237.3,146c1.4,0,2.5-1.1,2.5-2.5c0-1.4-1.1-2.5-2.5-2.5c-1.4,0-2.5,1.1-2.5,2.5
			C234.8,144.9,235.9,146,237.3,146z"/>
		<path class="st43" d="M161.3,193.3c1.4,0,2.5-1.1,2.5-2.5c0-1.4-1.1-2.5-2.5-2.5s-2.5,1.1-2.5,2.5
			C158.8,192.2,159.9,193.3,161.3,193.3z"/>
		<path class="st43" d="M73.5,175.1c1.4,0,2.5-1.1,2.5-2.5s-1.1-2.5-2.5-2.5c-1.4,0-2.5,1.1-2.5,2.5S72.1,175.1,73.5,175.1z"/>
		<path class="st44" d="M21.6,100.6c1.4,0,2.5-1.1,2.5-2.5c0-1.4-1.1-2.5-2.5-2.5c-1.4,0-2.5,1.1-2.5,2.5
			C19.2,99.5,20.3,100.6,21.6,100.6z"/>
		<path class="st44" d="M35.5,11.2c1.4,0,2.5-1.1,2.5-2.5s-1.1-2.5-2.5-2.5c-1.4,0-2.5,1.1-2.5,2.5S34.1,11.2,35.5,11.2z"/>
		<path class="st44" d="M107.5-44c1.4,0,2.5-1.1,2.5-2.5c0-1.4-1.1-2.5-2.5-2.5c-1.4,0-2.5,1.1-2.5,2.5C105-45.1,106.1-44,107.5-44z
			"/>
		<path class="st44" d="M197.8-34.7c1.4,0,2.5-1.1,2.5-2.5c0-1.4-1.1-2.5-2.5-2.5s-2.5,1.1-2.5,2.5
			C195.4-35.8,196.5-34.7,197.8-34.7z"/>
		<path class="st44" d="M257.5,34.4c1.4,0,2.5-1.1,2.5-2.5s-1.1-2.5-2.5-2.5s-2.5,1.1-2.5,2.5S256.2,34.4,257.5,34.4z"/>
		<path class="st44" d="M252.6,126.2c1.4,0,2.5-1.1,2.5-2.5c0-1.4-1.1-2.5-2.5-2.5c-1.4,0-2.5,1.1-2.5,2.5
			C250.1,125.1,251.2,126.2,252.6,126.2z"/>
		<path class="st44" d="M186,189.4c1.4,0,2.5-1.1,2.5-2.5c0-1.4-1.1-2.5-2.5-2.5c-1.4,0-2.5,1.1-2.5,2.5
			C183.5,188.3,184.6,189.4,186,189.4z"/>
		<path class="st44" d="M93.7,189.4c1.4,0,2.5-1.1,2.5-2.5c0-1.4-1.1-2.5-2.5-2.5s-2.5,1.1-2.5,2.5
			C91.2,188.3,92.3,189.4,93.7,189.4z"/>
		<path class="st45" d="M27.1,125.2c1.4,0,2.5-1.1,2.5-2.5c0-1.4-1.1-2.5-2.5-2.5c-1.4,0-2.5,1.1-2.5,2.5
			C24.6,124.1,25.7,125.2,27.1,125.2z"/>
		<path class="st45" d="M22.6,32.9c1.4,0,2.5-1.1,2.5-2.5c0-1.4-1.1-2.5-2.5-2.5c-1.4,0-2.5,1.1-2.5,2.5
			C20.2,31.8,21.3,32.9,22.6,32.9z"/>
		<path class="st45" d="M82.8-37.6c1.4,0,2.5-1.1,2.5-2.5c0-1.4-1.1-2.5-2.5-2.5s-2.5,1.1-2.5,2.5C80.4-38.7,81.5-37.6,82.8-37.6z"
			/>
		<path class="st45" d="M175.6-47c1.4,0,2.5-1.1,2.5-2.5s-1.1-2.5-2.5-2.5s-2.5,1.1-2.5,2.5S174.3-47,175.6-47z"/>
		<path class="st45" d="M249.6,10.5c1.5,0,2.7-1.2,2.7-2.7c0-1.5-1.2-2.7-2.7-2.7s-2.7,1.2-2.7,2.7C246.9,9.3,248.1,10.5,249.6,10.5
			z"/>
		<path class="st45" d="M264,103.3c1.5,0,2.7-1.2,2.7-2.7c0-1.5-1.2-2.7-2.7-2.7c-1.5,0-2.7,1.2-2.7,2.7
			C261.2,102.1,262.5,103.3,264,103.3z"/>
		<path class="st45" d="M210.2,180.3c1.5,0,2.7-1.2,2.7-2.7c0-1.5-1.2-2.7-2.7-2.7s-2.7,1.2-2.7,2.7
			C207.4,179,208.7,180.3,210.2,180.3z"/>
		<path class="st46" d="M117.4,199.5c1.5,0,2.7-1.2,2.7-2.7c0-1.5-1.2-2.7-2.7-2.7s-2.7,1.2-2.7,2.7
			C114.7,198.3,115.9,199.5,117.4,199.5z"/>
		<path class="st46" d="M37.4,149.2c1.5,0,2.7-1.2,2.7-2.7c0-1.5-1.2-2.7-2.7-2.7c-1.5,0-2.7,1.2-2.7,2.7
			C34.7,148,35.9,149.2,37.4,149.2z"/>
		<path class="st46" d="M13.7,57.4c1.5,0,2.7-1.2,2.7-2.7c0-1.5-1.2-2.7-2.7-2.7c-1.5,0-2.7,1.2-2.7,2.7
			C11,56.2,12.2,57.4,13.7,57.4z"/>
		<path class="st46" d="M59.6-25.5c1.5,0,2.7-1.2,2.7-2.7c0-1.5-1.2-2.7-2.7-2.7c-1.5,0-2.7,1.2-2.7,2.7
			C56.9-26.7,58.1-25.5,59.6-25.5z"/>
		<path class="st46" d="M150.9-54.2c1.5,0,2.7-1.2,2.7-2.7c0-1.5-1.2-2.7-2.7-2.7c-1.5,0-2.7,1.2-2.7,2.7
			C148.2-55.4,149.4-54.2,150.9-54.2z"/>
		<path class="st46" d="M236.8-12.2c1.5,0,2.7-1.2,2.7-2.7c0-1.5-1.2-2.7-2.7-2.7c-1.5,0-2.7,1.2-2.7,2.7
			C234.1-13.4,235.3-12.2,236.8-12.2z"/>
		<path class="st46" d="M270.4,78.1c1.5,0,2.7-1.2,2.7-2.7c0-1.5-1.2-2.7-2.7-2.7s-2.7,1.2-2.7,2.7
			C267.7,76.9,268.9,78.1,270.4,78.1z"/>
		<path class="st47" d="M232.4,166.4c1.5,0,2.7-1.2,2.7-2.7c0-1.5-1.2-2.7-2.7-2.7c-1.5,0-2.7,1.2-2.7,2.7
			C229.7,165.2,230.9,166.4,232.4,166.4z"/>
		<path class="st47" d="M143.5,204.4c1.5,0,2.7-1.2,2.7-2.7c0-1.5-1.2-2.7-2.7-2.7c-1.5,0-2.7,1.2-2.7,2.7
			C140.8,203.2,142,204.4,143.5,204.4z"/>
		<path class="st47" d="M52.7,170.9c1.5,0,2.7-1.2,2.7-2.7c0-1.5-1.2-2.7-2.7-2.7c-1.5,0-2.7,1.2-2.7,2.7
			C50,169.7,51.2,170.9,52.7,170.9z"/>
		<path class="st47" d="M9.8,83.5c1.5,0,2.7-1.2,2.7-2.7c0-1.5-1.2-2.7-2.7-2.7s-2.7,1.2-2.7,2.7C7.1,82.3,8.3,83.5,9.8,83.5z"/>
		<path class="st47" d="M38.9-9.2c1.5,0,2.7-1.2,2.7-2.7c0-1.5-1.2-2.7-2.7-2.7s-2.7,1.2-2.7,2.7C36.2-10.5,37.4-9.2,38.9-9.2z"/>
		<path class="st47" d="M124.3-56.6c1.5,0,2.7-1.2,2.7-2.7c0-1.5-1.2-2.7-2.7-2.7c-1.5,0-2.7,1.2-2.7,2.7
			C121.6-57.8,122.8-56.6,124.3-56.6z"/>
		<path class="st47" d="M219-31.9c1.5,0,2.7-1.2,2.7-2.7c0-1.5-1.2-2.7-2.7-2.7c-1.5,0-2.7,1.2-2.7,2.7
			C216.3-33.2,217.5-31.9,219-31.9z"/>
		<path class="st47" d="M271.4,51.5c1.5,0,2.7-1.2,2.7-2.7c0-1.5-1.2-2.7-2.7-2.7c-1.5,0-2.7,1.2-2.7,2.7
			C268.6,50.2,269.9,51.5,271.4,51.5z"/>
		<path class="st48" d="M251.1,147.7c1.5,0,2.7-1.2,2.7-2.7c0-1.5-1.2-2.7-2.7-2.7c-1.5,0-2.7,1.2-2.7,2.7
			C248.4,146.5,249.6,147.7,251.1,147.7z"/>
		<path class="st48" d="M170.2,203.9c1.5,0,2.7-1.2,2.7-2.7s-1.2-2.7-2.7-2.7c-1.5,0-2.7,1.2-2.7,2.7S168.7,203.9,170.2,203.9z"/>
		<path class="st48" d="M72.5,189.1c1.5,0,2.7-1.2,2.7-2.7c0-1.5-1.2-2.7-2.7-2.7c-1.5,0-2.7,1.2-2.7,2.7
			C69.8,187.9,71,189.1,72.5,189.1z"/>
		<path class="st48" d="M11.3,110.7c1.5,0,2.7-1.2,2.7-2.7c0-1.5-1.2-2.7-2.7-2.7c-1.5,0-2.7,1.2-2.7,2.7
			C8.6,109.5,9.8,110.7,11.3,110.7z"/>
		<path class="st48" d="M21.6,11.5c1.5,0,2.7-1.2,2.7-2.7c0-1.5-1.2-2.7-2.7-2.7s-2.7,1.2-2.7,2.7C18.9,10.3,20.1,11.5,21.6,11.5z"
			/>
		<path class="st48" d="M97.1-53.7c1.5,0,2.7-1.2,2.7-2.7c0-1.5-1.2-2.7-2.7-2.7c-1.5,0-2.7,1.2-2.7,2.7
			C94.4-54.9,95.7-53.7,97.1-53.7z"/>
		<path class="st48" d="M197.3-48.7c1.5,0,2.7-1.2,2.7-2.7s-1.2-2.7-2.7-2.7c-1.5,0-2.7,1.2-2.7,2.7S195.8-48.7,197.3-48.7z"/>
		<path class="st49" d="M266.9,24.3c1.5,0,2.7-1.2,2.7-2.7c0-1.5-1.2-2.7-2.7-2.7s-2.7,1.2-2.7,2.7
			C264.2,23.1,265.4,24.3,266.9,24.3z"/>
		<path class="st49" d="M266.9,125c1.5,0,2.7-1.2,2.7-2.7c0-1.5-1.2-2.7-2.7-2.7s-2.7,1.2-2.7,2.7C264.2,123.8,265.4,125,266.9,125z
			"/>
		<path class="st49" d="M197.3,198c1.5,0,2.7-1.2,2.7-2.7c0-1.5-1.2-2.7-2.7-2.7c-1.5,0-2.7,1.2-2.7,2.7
			C194.6,196.8,195.8,198,197.3,198z"/>
		<path class="st49" d="M96.2,203.5c1.5,0,2.7-1.2,2.7-2.7c0-1.5-1.2-2.7-2.7-2.7c-1.5,0-2.7,1.2-2.7,2.7
			C93.4,202.2,94.7,203.5,96.2,203.5z"/>
		<path class="st49" d="M18.7,137.3c1.5,0,2.7-1.2,2.7-2.7s-1.2-2.7-2.7-2.7c-1.5,0-2.7,1.2-2.7,2.7S17.2,137.3,18.7,137.3z"/>
		<path class="st49" d="M8.3,36.2c1.5,0,2.7-1.2,2.7-2.7c0-1.5-1.2-2.7-2.7-2.7c-1.5,0-2.7,1.2-2.7,2.7C5.6,34.9,6.8,36.2,8.3,36.2z
			"/>
		<path class="st49" d="M71-44.8c1.5,0,2.7-1.2,2.7-2.7s-1.2-2.7-2.7-2.7s-2.7,1.2-2.7,2.7S69.5-44.8,71-44.8z"/>
		<path class="st49" d="M172.2-60.6c1.5,0,2.7-1.2,2.7-2.7c0-1.5-1.2-2.7-2.7-2.7c-1.5,0-2.7,1.2-2.7,2.7
			C169.4-61.8,170.7-60.6,172.2-60.6z"/>
		<path class="st50" d="M256.5-1.8c1.5,0,2.7-1.2,2.7-2.7c0-1.5-1.2-2.7-2.7-2.7c-1.5,0-2.7,1.2-2.7,2.7
			C253.8-3.1,255.1-1.8,256.5-1.8z"/>
		<path class="st50" d="M277.3,99.1c1.6,0,3-1.3,3-3c0-1.6-1.3-3-3-3c-1.6,0-3,1.3-3,3C274.3,97.8,275.6,99.1,277.3,99.1z"/>
		<path class="st50" d="M223,186.9c1.6,0,3-1.3,3-3c0-1.6-1.3-3-3-3c-1.6,0-3,1.3-3,3C220,185.6,221.4,186.9,223,186.9z"/>
		<path class="st50" d="M122.8,213.1c1.6,0,3-1.3,3-3c0-1.6-1.3-3-3-3c-1.6,0-3,1.3-3,3C119.8,211.8,121.2,213.1,122.8,213.1z"/>
		<path class="st50" d="M32,162.7c1.6,0,3-1.3,3-3c0-1.6-1.3-3-3-3c-1.6,0-3,1.3-3,3C29,161.4,30.4,162.7,32,162.7z"/>
		<path class="st50" d="M0.4,63.5c1.6,0,3-1.3,3-3c0-1.6-1.3-3-3-3s-3,1.3-3,3C-2.5,62.2-1.2,63.5,0.4,63.5z"/>
		<path class="st50" d="M46.3-30.2c1.6,0,3-1.3,3-3c0-1.6-1.3-3-3-3c-1.6,0-3,1.3-3,3C43.4-31.5,44.7-30.2,46.3-30.2z"/>
		<path class="st51" d="M144.5-66.7c1.6,0,3-1.3,3-3s-1.3-3-3-3c-1.6,0-3,1.3-3,3S142.9-66.7,144.5-66.7z"/>
		<path class="st51" d="M240.8-25.3c1.6,0,3-1.3,3-3s-1.3-3-3-3c-1.6,0-3,1.3-3,3S239.1-25.3,240.8-25.3z"/>
		<path class="st51" d="M282.7,70.9c1.6,0,3-1.3,3-3c0-1.6-1.3-3-3-3c-1.6,0-3,1.3-3,3C279.7,69.6,281.1,70.9,282.7,70.9z"/>
		<path class="st51" d="M246.2,170.1c1.6,0,3-1.3,3-3c0-1.6-1.3-3-3-3c-1.6,0-3,1.3-3,3C243.2,168.8,244.6,170.1,246.2,170.1z"/>
		<path class="st51" d="M150.9,216.5c1.6,0,3-1.3,3-3c0-1.6-1.3-3-3-3c-1.6,0-3,1.3-3,3C148,215.2,149.3,216.5,150.9,216.5z"/>
		<path class="st51" d="M49.8,184.9c1.6,0,3-1.3,3-3c0-1.6-1.3-3-3-3c-1.6,0-3,1.3-3,3C46.8,183.6,48.1,184.9,49.8,184.9z"/>
		<path class="st51" d="M-1.6,92.2c1.6,0,3-1.3,3-3c0-1.6-1.3-3-3-3c-1.6,0-3,1.3-3,3C-4.5,90.8-3.2,92.2-1.6,92.2z"/>
		<path class="st51" d="M24.6-11c1.6,0,3-1.3,3-3c0-1.6-1.3-3-3-3c-1.6,0-3,1.3-3,3C21.6-12.3,23-11,24.6-11z"/>
		<path class="st52" d="M115.4-67.7c1.6,0,3-1.3,3-3c0-1.6-1.3-3-3-3c-1.6,0-3,1.3-3,3C112.4-69.1,113.8-67.7,115.4-67.7z"/>
		<path class="st52" d="M220.5-46c1.6,0,3-1.3,3-3s-1.3-3-3-3c-1.6,0-3,1.3-3,3S218.9-46,220.5-46z"/>
		<path class="st52" d="M281.7,41.8c1.6,0,3-1.3,3-3s-1.3-3-3-3c-1.6,0-3,1.3-3,3S280.1,41.8,281.7,41.8z"/>
		<path class="st52" d="M265.9,148.4c1.6,0,3-1.3,3-3c0-1.6-1.3-3-3-3s-3,1.3-3,3C263,147.1,264.3,148.4,265.9,148.4z"/>
		<path class="st52" d="M180.6,214.6c1.6,0,3-1.3,3-3c0-1.6-1.3-3-3-3c-1.6,0-3,1.3-3,3C177.6,213.2,178.9,214.6,180.6,214.6z"/>
		<path class="st52" d="M73,203.7c1.6,0,3-1.3,3-3c0-1.6-1.3-3-3-3c-1.6,0-3,1.3-3,3C70,202.4,71.3,203.7,73,203.7z"/>
		<path class="st52" d="M1.9,121.8c1.6,0,3-1.3,3-3c0-1.6-1.3-3-3-3c-1.6,0-3,1.3-3,3C-1.1,120.5,0.3,121.8,1.9,121.8z"/>
		<path class="st53" d="M7.3,12.7c1.6,0,3-1.3,3-3s-1.3-3-3-3c-1.6,0-3,1.3-3,3S5.7,12.7,7.3,12.7z"/>
		<path class="st53" d="M86.3-62.3c1.6,0,3-1.3,3-3c0-1.6-1.3-3-3-3s-3,1.3-3,3C83.3-63.6,84.7-62.3,86.3-62.3z"/>
		<path class="st53" d="M195.4-62.8c1.6,0,3-1.3,3-3s-1.3-3-3-3c-1.6,0-3,1.3-3,3S193.7-62.8,195.4-62.8z"/>
		<path class="st53" d="M275.3,12.7c1.6,0,3-1.3,3-3s-1.3-3-3-3c-1.6,0-3,1.3-3,3S273.7,12.7,275.3,12.7z"/>
		<path class="st53" d="M280.7,122.8c1.6,0,3-1.3,3-3c0-1.6-1.3-3-3-3c-1.6,0-3,1.3-3,3C277.8,121.4,279.1,122.8,280.7,122.8z"/>
		<path class="st53" d="M209.2,206.2c1.6,0,3-1.3,3-3c0-1.6-1.3-3-3-3c-1.6,0-3,1.3-3,3C206.2,204.8,207.5,206.2,209.2,206.2z"/>
		<path class="st53" d="M99.6,217.5c1.6,0,3-1.3,3-3c0-1.6-1.3-3-3-3c-1.6,0-3,1.3-3,3C96.7,216.2,98,217.5,99.6,217.5z"/>
		<path class="st53" d="M11.8,149.9c1.6,0,3-1.3,3-3c0-1.6-1.3-3-3-3c-1.6,0-3,1.3-3,3C8.8,148.6,10.1,149.9,11.8,149.9z"/>
		<path class="st54" d="M58.2-50.9c1.6,0,3-1.3,3-3c0-1.6-1.3-3-3-3s-3,1.3-3,3C55.2-52.3,56.5-50.9,58.2-50.9z"/>
		<path class="st54" d="M262.5-14.9c1.6,0,3-1.3,3-3c0-1.6-1.3-3-3-3s-3,1.3-3,3C259.5-16.2,260.8-14.9,262.5-14.9z"/>
		<path class="st54" d="M236.3,191.9c1.6,0,3-1.3,3-3c0-1.6-1.3-3-3-3c-1.6,0-3,1.3-3,3C233.4,190.5,234.7,191.9,236.3,191.9z"/>
		<path class="st55" d="M27.6,176.8c1.8,0,3.2-1.4,3.2-3.2s-1.4-3.2-3.2-3.2c-1.8,0-3.2,1.4-3.2,3.2S25.8,176.8,27.6,176.8z"/>
		<path class="st55" d="M32-33.9c1.8,0,3.2-1.4,3.2-3.2c0-1.8-1.4-3.2-3.2-3.2c-1.8,0-3.2,1.4-3.2,3.2C28.8-35.4,30.2-33.9,32-33.9z
			"/>
		<path class="st55" d="M243.7-39.8c1.8,0,3.2-1.4,3.2-3.2s-1.4-3.2-3.2-3.2s-3.2,1.4-3.2,3.2S241.9-39.8,243.7-39.8z"/>
		<path class="st55" d="M260.5,172.4c1.8,0,3.2-1.4,3.2-3.2c0-1.8-1.4-3.2-3.2-3.2s-3.2,1.4-3.2,3.2
			C257.3,170.9,258.7,172.4,260.5,172.4z"/>
		<path class="st56" d="M48.8,200c1.8,0,3.2-1.4,3.2-3.2s-1.4-3.2-3.2-3.2c-1.8,0-3.2,1.4-3.2,3.2S47,200,48.8,200z"/>
		<path class="st56" d="M10.3-11.2c1.8,0,3.2-1.4,3.2-3.2s-1.4-3.2-3.2-3.2s-3.2,1.4-3.2,3.2S8.5-11.2,10.3-11.2z"/>
		<path class="st56" d="M220-60.6c1.8,0,3.2-1.4,3.2-3.2S221.8-67,220-67s-3.2,1.4-3.2,3.2S218.3-60.6,220-60.6z"/>
		<path class="st56" d="M280.2,147.7c1.8,0,3.2-1.4,3.2-3.2c0-1.8-1.4-3.2-3.2-3.2s-3.2,1.4-3.2,3.2
			C277,146.3,278.5,147.7,280.2,147.7z"/>
		<path class="st57" d="M74.4,218.8c1.8,0,3.2-1.4,3.2-3.2s-1.4-3.2-3.2-3.2s-3.2,1.4-3.2,3.2S72.7,218.8,74.4,218.8z"/>
		<path class="st57" d="M282.7,0.1c1.8,0,3.2-1.4,3.2-3.2s-1.4-3.2-3.2-3.2c-1.8,0-3.2,1.4-3.2,3.2S280.9,0.1,282.7,0.1z"/>
		<path class="st58" d="M222.5,213.3c1.8,0,3.2-1.4,3.2-3.2s-1.4-3.2-3.2-3.2s-3.2,1.4-3.2,3.2S220.7,213.3,222.5,213.3z"/>
		<path class="st58" d="M5.4,164c1.8,0,3.2-1.4,3.2-3.2s-1.4-3.2-3.2-3.2s-3.2,1.4-3.2,3.2S3.6,164,5.4,164z"/>
		<path class="st58" d="M44.3-56.1c1.8,0,3.2-1.4,3.2-3.2c0-1.8-1.4-3.2-3.2-3.2c-1.8,0-3.2,1.4-3.2,3.2
			C41.1-57.6,42.6-56.1,44.3-56.1z"/>
		<path class="st58" d="M266.9-29c1.8,0,3.2-1.4,3.2-3.2c0-1.8-1.4-3.2-3.2-3.2s-3.2,1.4-3.2,3.2C263.7-30.4,265.1-29,266.9-29z"/>
		<path class="st59" d="M250.6,196.1c1.8,0,3.2-1.4,3.2-3.2s-1.4-3.2-3.2-3.2s-3.2,1.4-3.2,3.2S248.9,196.1,250.6,196.1z"/>
		<path class="st59" d="M24.1,191.9c1.9,0,3.5-1.5,3.5-3.5s-1.5-3.5-3.5-3.5s-3.5,1.5-3.5,3.5S22.2,191.9,24.1,191.9z"/>
		<path class="st59" d="M17.7-35.6c1.9,0,3.5-1.5,3.5-3.5s-1.5-3.5-3.5-3.5c-1.9,0-3.5,1.5-3.5,3.5S15.8-35.6,17.7-35.6z"/>
		<path class="st59" d="M245.2-54.4c1.9,0,3.5-1.5,3.5-3.5s-1.5-3.5-3.5-3.5c-1.9,0-3.5,1.5-3.5,3.5S243.3-54.4,245.2-54.4z"/>
		<path class="st60" d="M275.3,173.6c1.9,0,3.5-1.5,3.5-3.5c0-1.9-1.5-3.5-3.5-3.5c-1.9,0-3.5,1.5-3.5,3.5
			C271.8,172.1,273.4,173.6,275.3,173.6z"/>
		<path class="st60" d="M48.3,215.1c1.9,0,3.5-1.5,3.5-3.5c0-1.9-1.5-3.5-3.5-3.5s-3.5,1.5-3.5,3.5
			C44.8,213.5,46.4,215.1,48.3,215.1z"/>
		<path class="st61" d="M236.3,219.5c1.9,0,3.5-1.5,3.5-3.5c0-1.9-1.5-3.5-3.5-3.5c-1.9,0-3.5,1.5-3.5,3.5
			C232.9,217.9,234.4,219.5,236.3,219.5z"/>
		<path class="st61" d="M0.4,178.5c1.9,0,3.5-1.5,3.5-3.5c0-1.9-1.5-3.5-3.5-3.5s-3.5,1.5-3.5,3.5C-3,177-1.5,178.5,0.4,178.5z"/>
		<path class="st62" d="M29.5-60.3c1.9,0,3.5-1.5,3.5-3.5c0-1.9-1.5-3.5-3.5-3.5s-3.5,1.5-3.5,3.5C26.1-61.9,27.6-60.3,29.5-60.3z"
			/>
		<path class="st62" d="M270.4-43.5c1.9,0,3.5-1.5,3.5-3.5s-1.5-3.5-3.5-3.5c-1.9,0-3.5,1.5-3.5,3.5S268.5-43.5,270.4-43.5z"/>
		<path class="st62" d="M265.9,199.3c1.9,0,3.5-1.5,3.5-3.5c0-1.9-1.5-3.5-3.5-3.5s-3.5,1.5-3.5,3.5
			C262.5,197.7,264,199.3,265.9,199.3z"/>
		<path class="st62" d="M22.1,206.7c1.9,0,3.5-1.5,3.5-3.5c0-1.9-1.5-3.5-3.5-3.5s-3.5,1.5-3.5,3.5
			C18.7,205.1,20.2,206.7,22.1,206.7z"/>
		<path class="st63" d="M2.4-36.9c2,0,3.7-1.7,3.7-3.7c0-2-1.7-3.7-3.7-3.7c-2,0-3.7,1.7-3.7,3.7C-1.3-38.5,0.4-36.9,2.4-36.9z"/>
		<path class="st64" d="M-3.5,194.1c2,0,3.7-1.7,3.7-3.7c0-2-1.7-3.7-3.7-3.7c-2,0-3.7,1.7-3.7,3.7C-7.2,192.4-5.6,194.1-3.5,194.1z
			"/>
		<path class="st64" d="M14.2-63c2,0,3.7-1.7,3.7-3.7c0-2-1.7-3.7-3.7-3.7c-2,0-3.7,1.7-3.7,3.7C10.5-64.7,12.2-63,14.2-63z"/>
		<path class="st64" d="M272.8-58.6c2,0,3.7-1.7,3.7-3.7s-1.7-3.7-3.7-3.7c-2,0-3.7,1.7-3.7,3.7S270.8-58.6,272.8-58.6z"/>
		<path class="st65" d="M281.2,201c2,0,3.7-1.7,3.7-3.7c0-2-1.7-3.7-3.7-3.7c-2,0-3.7,1.7-3.7,3.7C277.5,199.3,279.2,201,281.2,201z
			"/>
		<path class="st66" d="M-1.6-64.8c2.2,0,3.9-1.8,3.9-3.9s-1.8-3.9-3.9-3.9c-2.2,0-3.9,1.8-3.9,3.9S-3.7-64.8-1.6-64.8z"/>
	</g>
</g>
</svg>
